<svg xmlns="http://www.w3.org/2000/svg" version="1.1" width="600px" height="600px" viewBox="0 0 200 200" style="overflow:hidden!important;"><g id="svga-group-wrapper"><g id="svga-group-backs-single"></g><g id="svga-group-humanwrap-move" transform="matrix(1,0,0,1,0,-4)"><g id="svga-group-humanwrap" transform="matrix(0.9499999,0,0,0.9499999,4.997509842411802,6.455012642970658)"><g id="svga-group-hair-back-move" transform="matrix(1,0,0,1,0,0)"><g id="svga-group-hair-back"></g></g><g id="svga-group-humanbody-back"><path id="SvgjsPath7474" d="m170 180.3-27.3-6.9-18-9.9-1.5-28.2H76.8l-1.5 28.2-18 9.9-27.3 6.9-9.1 19.7-3 20h164.2l-3-20z" fill="#fae1d3" stroke-width="none" opacity="1" stroke="none"></path><path id="SvgjsPath7475" d="m76.8 135.3-1.5 28.2-18 9.9-27.3 6.9-9.1 19.7-3 20h14.6v-20l2.7-17.7 23.8-6.4 24.7-8.3 3.5-32.3z" fill="#dba98d" stroke-width="none" opacity="1" stroke="none"></path></g><g id="svga-group-chinshadow-single"><path id="SvgjsPath7470" d="m110 156.9 2.4-3.4 11.4-7.5-.6-10.7H76.8l-.7 14.3 5.9 3.9 2.4 3.4 5.4 2.7h14.8z" fill="#cc906f" stroke-width="none" opacity="1" stroke="none"></path></g><g id="svga-group-humanbody-front"><path id="SvgjsPath7476" d="m92.8 168.3 2 7.9 6.9 4.6s-8.5-3-8.7-3.6c-.2-.6-.2-8.9-.2-8.9z" fill="#dba98d" stroke-width="none" opacity="1" stroke="none"></path></g><g id="svga-group-clothes-single"><path id="SvgjsPath8901" d="m179.6 200-8.5-20-28.8-7.4-9.5-4.8-.1-1.5-8.3-8.8.2 3.5-1.1 12.2-7.6 7.9-9.1 1.9-2.1 5.7-2.1 2.9-7.5-9.3-10.7-1.2-5.8-7.3-3.2-13.1.2-3.2-8.3 8.8-.1 1.5-9.5 4.8L29 180l-8.6 20-3.4 20h165.9z" fill="#dbd36a" stroke-width="none" opacity="1" stroke="none"></path><path id="SvgjsPath8902" d="m29.9 200.7 3.6-10.8 24.9-9.6 7.2-3.2.3-2 11.5-5.7h.1l-2.1-8.7.2-3.2-8.3 8.8-.1 1.5-9.5 4.8L29 180l-8.6 20-3.4 20h12.6z" fill="#ccc34e" stroke-width="none" opacity="1" stroke="none"></path><path id="SvgjsPath8903" d="m132.8 167.8 2.7 19.2 1.2 8.7L125 188l-5.2-5.3-4.2-1.6 4 3.4-6.4 2.6-7.9 1.5 7-.6-8.7 11.8V220h1.7l-.8-19.8 7.8-12 1-.1 7.1-2.8 4.2 4.5 13.3 8.1-1.6-12.4-3.5-17.7zm-33.1 29.7 2.9-5.9-3.5 5-6.1-8.7-12.5-3.4 3.8-3.3-4.2 1.6L75 188l-11.7 7.7 1.2-8.7 2.7-19.2-3.4 17.7-1.6 12.4 13.3-8.1 4.6-4.9.5-.5 11.8 4.3 6.1 8.6-1.2.7 1.1 21.9h1.5l-1.3-21 1.1-1.4zm10.5-12.8-1.5-.8-.9 1.4 1.4 1 1-1.6zm-9.3 13.3 1.4 1 1-1.7-1.5-.8-.9 1.5zm-.8 18.6 1.4 1 1-1.7-1.5-.8-.9 1.5zm-69.7-35.3 6.8 21 1.2 17.7h1.4l-1.1-17.8-8.3-20.9zm130.5 19.3-1.2 19.4h1.9l1-19.2 7-18.2-8.7 18z" fill="#bcb336" stroke-width="none" opacity="1" stroke="none"></path><path id="SvgjsPath8904" d="m127 162.5-1.1-1.4v13l-5.3 8 4.8 4.6s2.3-11.1 2.3-11.8c0-.7-.7-12.4-.7-12.4zm-53.2.1.5-2.3-1.8 2.5 1.2 13.4 2.1 9.5 3.8-4.3-3.9-6.1-1.9-12.7z" fill="#eae389" stroke-width="none" opacity="1" stroke="none"></path></g><g id="svga-group-head" transform="matrix(1,0,0,1,0,0)"><g id="svga-group-ears-left-move" transform="matrix(1,0,0,1,0,0)"><g id="svga-group-ears-left" transform="matrix(0.9499999,0,0,0.9499999,2.8675058494411445,5.227510607588201)"><path id="SvgjsPath7376" d="M63.1 91.8s-6-.7-10.6-3.7c0 0-3.5 9.4-4 14.4 0 0 6.7 13 10 18.5 0 0 5.2-.7 6.3-1.4l1.4-8.4-3.1-19.4z" fill="#fae1d3" stroke-width="none" opacity="1" stroke="none"></path><path id="SvgjsPath7377" d="M53.3 90c-.2-.4-.8-1.9-.8-1.9 5.2.4 10.7 1.4 10.7 1.4l3 21.6-1.4 8.4c-1.1.7-6.3 1.4-6.3 1.4-.6-1-1.3-2.3-2.1-3.6l2.6 1 3-1.6s.7-11.2.5-11.5c-.1-.3-9-14.8-9.2-15.2z" fill="#ebc4af" stroke-width="none" opacity="1" stroke="none"></path><path id="SvgjsPath7378" d="m50.3 100.9 2.8-5.5 5.2 6.8 2.2 9.5-1.4 1.9-4.3-7.6 1-4.7-2.6-4z" fill="#dba98d" stroke-width="none" opacity="1" stroke="none"></path></g></g><g id="svga-group-ears-right-move" transform="matrix(1,0,0,1,0,0)"><g id="svga-group-ears-right" transform="matrix(0.9499999,0,0,0.9499999,7.1325143412940974,5.227510607588201)"><path id="SvgjsPath7379" d="M136.9 91.8s6-.7 10.6-3.7c0 0 3.5 9.4 4 14.4 0 0-6.7 13-10 18.5 0 0-5.2-.7-6.3-1.4l-1.4-8.4 3.1-19.4z" fill="#fae1d3" stroke-width="none" opacity="1" stroke="none"></path><path id="SvgjsPath7380" d="M146.7 90c.2-.4.8-1.9.8-1.9-5.2.4-10.7 1.4-10.7 1.4l-3 21.6 1.4 8.4c1.1.7 6.3 1.4 6.3 1.4.6-1 1.3-2.3 2.1-3.6l-2.6 1-3-1.6s-.7-11.2-.5-11.5c.1-.3 9-14.8 9.2-15.2z" fill="#ebc4af" stroke-width="none" opacity="1" stroke="none"></path><path id="SvgjsPath7381" d="m149.7 100.9-2.8-5.5-5.2 6.8-2.2 9.5 1.4 1.9 4.3-7.6-1-4.7 2.6-4z" fill="#dba98d" stroke-width="none" opacity="1" stroke="none"></path></g></g><g id="svga-group-faceshape-wrap"><g id="svga-group-faceshape-single"><path id="SvgjsPath7456" d="M143.4 84.8c-.2-10.2-5.3-24.8-5.3-24.8-6.9-11.6-19.7-19.5-19.7-19.5-7.2-1.5-18.4-2.3-18.4-2.3s-11.1.8-18.4 2.3c0 0-12.8 7.9-19.7 19.5 0 0-5.1 14.5-5.3 24.8l2.1 35.8 5 13.4 21.2 13.8 2.4 3.4 5.3 2.7h14.8l5.3-2.7 2.4-3.4 21.2-13.8 5-13.4 2.1-35.8z" fill="#fae1d3" stroke-width="none" opacity="1" stroke="none"></path><path id="SvgjsPath7457" d="M106.7 152.5H91.9l-2-4.6-22.8-15.7-2.8-15.4-3.1-32.7 5.1-22.2 16.5-18.8 17.1-2.8 18.5.2c-7.2-1.5-18.4-2.3-18.4-2.3s-11.1.8-18.4 2.3c0 0-12.8 7.9-19.7 19.5 0 0-5.1 14.5-5.3 24.8l2.1 35.8 5 13.4 21.2 13.8 2.4 3.4 5.3 2.7h14.8l5.3-2.7 2.4-3.4 21.2-13.8-24.5 12.7-5.1 5.8z" fill="#dba98d" stroke-width="none" opacity="1" stroke="none"></path></g></g><g id="svga-group-mouth-single-move" transform="matrix(1,0,0,1,0,0)"><g id="svga-group-mouth-single"><path id="SvgjsPath8412" d="m84.99 125.5 2.75 3.94 12.37-.68 12.45.84 3.02-3.87-3.73 2.46-6.81-2.5-4.93 1.46-4.57-1.35-7.7 1.93z" fill="#da7c87" stroke-width="none" opacity="1" transform="translate(0 2)" stroke="none"></path><path id="SvgjsPath8413" d="m89.12 131.92 1.15 2.64 10.05 2.86 10.83-3.61-10.89 2.15-9.41-2.31-1.73-1.73z" fill="#dba98d" stroke-width="none" opacity="1" transform="translate(0 2)" stroke="none"></path></g></g><g id="svga-group-eyes-left-move" transform="matrix(1,0,0,1,0,0)"><g id="svga-group-eyes-left" transform="matrix(0.9499997000000001,0,0,0.9499997000000001,4.0300241037055855,4.762528765735993)"><g id="svga-group-eyesback-left"><path id="SvgjsPath10777" d="M91.2 95.7 86 91.1l-9 .1-7 3.8s5.8 4.3 7.2 4.9l8.8-.4 5.2-3.8z" fill="#ffffff" stroke-width="none" opacity="1"></path></g><g id="svga-group-eyesiriswrapper-left" transform="matrix(1,0,0,1,0,0)"><g id="svga-group-eyesiriscontrol-left" transform="matrix(1,0,0,1,0,0)"><g id="svga-group-eyesiris-left"><path id="SvgjsPath11070" d="M82.9 89.5h-4L76 92.4v4.1l2.9 2.8h4l2.9-2.8v-4.1z" fill="#4a8b8b" stroke-width="none" opacity="1" stroke="none"></path><path id="SvgjsPath11071" d="M86.1 96.5v-2c0-.7 0-1.4-.1-2v-.2c-.5-.5-1-.9-1.5-1.4-.2-.2-.5-.5-.8-.7-.2-.2-.5-.4-.8-.7-.3 0-.7 0-1-.1s-.7 0-1-.1c-.7 0-1.4-.1-2.1-.1h-.1l-.1.1c-.5.5-1 .9-1.5 1.4l-.7.7-.7.7-.1.1v.1l.1 2c0 .7.1 1.4.1 2l.7.7.7.7c.5.5.9 1 1.4 1.5h.1c.7 0 1.4.1 2 .1H83l.1-.1 1.5-1.4.7-.7.7-.7.1-.1v.2zm-1.2.5-.7.7-1.3 1.4H81c-.7 0-1.3 0-2 .1-.5-.4-1-.9-1.4-1.4l-.7-.7-.7-.7c0-.7 0-1.3.1-2l.1-1.9.7-.7.7-.7 1.4-1.4c.6 0 1.3 0 1.9-.1.3 0 .7 0 1-.1.3 0 .7 0 1-.1l.7.8c.2.2.5.5.7.8.4.5.9.9 1.3 1.4 0 .7 0 1.3-.1 1.9v1.9l-.8.8z" fill="#246c6c" stroke-width="none" opacity="1" stroke="none"></path><path id="SvgjsPath11072" d="m82.6 93.2.4 1.5-.8 1.4-1.6.4-1.4-.8-.4-1.6.8-1.4 1.6-.4z" fill="#000000" stroke-width="none" opacity="1"></path><path id="SvgjsPath11073" d="m80.6 96.7-1.5-.9-.4-1.7.9-1.5 1.7-.4 1.5.9.4 1.7-.9 1.5-1.7.4zm-1.2-1.1 1.3.8 1.4-.4.8-1.3-.4-1.4-1.3-.8-1.4.4-.8 1.3.4 1.4z" fill="#246c6c" stroke-width="none" opacity="1" stroke="none"></path><path id="SvgjsPath11074" d="m78.7 90.9.8-.4 1.1 2.4-.8.4-1.1-2.4z" fill="#ffffff" stroke-width="none" opacity="1"></path><path id="SvgjsPath11075" d="M81.2 95.5h1v1h-1v-1z" fill="#ffffff" stroke-width="none" opacity="1"></path></g></g></g><g id="svga-group-eyesfront-left"><path id="SvgjsPath10785" d="M67.1 89.3v11.9l7.9 8.4h11.2l7.9-8.4V89.3l-7.9-8.4H75l-7.9 8.4zm3 5.7 7-3.8 9-.1 5.1 4.6-5.2 3.9-8.8.4c-1.3-.8-7.1-5-7.1-5z" fill="#fae1d3" stroke-width="none" opacity="1"></path><path id="SvgjsPath10786" d="m91.7 96.1-1.2-.6-4.7-4.1H77l-7.2 4-1 .2 7.9-5 9.6-.1z" fill="#000000" stroke-width="none" opacity="1"></path><path id="SvgjsPath10787" d="m90.8 94-4-4.1-9.8-.1-8.1 3.6 8.1-3.1h9.7z" fill="#ebc4af" stroke-width="none" opacity="1"></path></g></g></g><g id="svga-group-eyes-right-move" transform="matrix(1,0,0,1,0,0)"><g id="svga-group-eyes-right" transform="matrix(0.9499997000000001,0,0,0.9499997000000001,5.970035705558388,4.757528812030401)"><g id="svga-group-eyesback-right"><path id="SvgjsPath10778" d="m108.8 95.7 5.1-4.6 9 .1 7 3.8s-5.8 4.3-7.2 4.9l-8.8-.4-5.1-3.8z" fill="#ffffff" stroke-width="none" opacity="1"></path></g><g id="svga-group-eyesiriswrapper-right" transform="matrix(1,0,0,1,0,0)"><g id="svga-group-eyesiriscontrol-right" transform="matrix(1,0,0,1,0,0)"><g id="svga-group-eyesiris-right"><path id="SvgjsPath11076" d="M121.1 89.5H117l-2.9 2.9v4.1l2.9 2.8h4.1l2.8-2.8v-4.1z" fill="#4a8b8b" stroke-width="none" opacity="1" stroke="none"></path><path id="SvgjsPath11077" d="M124.2 96.5v-2c0-.7 0-1.4-.1-2v-.1l-.1-.1c-.5-.5-1-.9-1.5-1.4-.2-.2-.5-.5-.8-.7-.2-.2-.5-.4-.8-.7-.3 0-.7 0-1-.1s-.7 0-1-.1c-.7 0-1.4-.1-2.1-.1h-.1l-.1.1c-.5.5-1 .9-1.5 1.4l-.7.7-.7.7-.1.1v.1l.1 2c0 .7.1 1.4.1 2l.7.7.7.7c.5.5.9 1 1.4 1.5h.1c.7 0 1.4.1 2 .1h2.1l.1-.1 1.5-1.4.7-.7.7-.7.1-.1.3.2zm-1.2.5-.7.7-1.3 1.4h-1.9c-.7 0-1.3 0-2 .1-.5-.4-1-.9-1.4-1.4l-.7-.7-.7-.7c0-.7 0-1.3.1-2l.1-1.9.7-.7.7-.7 1.4-1.4c.6 0 1.3 0 1.9-.1.3 0 .7 0 1-.1.3 0 .7 0 1-.1l.7.8c.2.2.5.5.7.8.4.5.9.9 1.3 1.4 0 .7 0 1.3-.1 1.9v1.9l-.8.8z" fill="#246c6c" stroke-width="none" opacity="1" stroke="none"></path><path id="SvgjsPath11078" d="m120.7 93.2.4 1.5-.8 1.4-1.6.4-1.4-.8-.4-1.6.9-1.4 1.5-.4z" fill="#000000" stroke-width="none" opacity="1"></path><path id="SvgjsPath11079" d="m118.7 96.7-1.5-.9-.4-1.7.9-1.5 1.7-.4 1.5.9.4 1.7-.9 1.5-1.7.4zm-1.2-1.1 1.3.8 1.4-.4.8-1.3-.4-1.4-1.3-.8-1.4.4-.8 1.3.4 1.4z" fill="#246c6c" stroke-width="none" opacity="1" stroke="none"></path><path id="SvgjsPath11080" d="m116.8 90.9.8-.4 1.1 2.4-.8.4-1.1-2.4z" fill="#ffffff" stroke-width="none" opacity="1"></path><path id="SvgjsPath11081" d="M119.3 95.5h1v1h-1v-1z" fill="#ffffff" stroke-width="none" opacity="1"></path></g></g></g><g id="svga-group-eyesfront-right"><path id="SvgjsPath10788" d="M125 80.8h-11.2l-7.9 8.4v11.9l7.9 8.4H125l7.9-8.4V89.3l-7.9-8.5zm-2.3 19.1-8.8-.4-5.1-3.8 5.1-4.6 9 .1 7 3.8s-5.8 4.2-7.2 4.9z" fill="#fae1d3" stroke-width="none" opacity="1"></path><path id="SvgjsPath10791" d="m108.3 96.1 1.2-.6 4.7-4.1h8.8l7.2 4 1 .2-7.9-5-9.6-.1z" fill="#000000" stroke-width="none" opacity="1"></path><path id="SvgjsPath10792" d="m109.2 94 4-4.1 9.8-.1 8.1 3.6-8.1-3.1h-9.7z" fill="#ebc4af" stroke-width="none" opacity="1"></path></g></g></g><g id="svga-group-facehighlight-single"></g><g id="svga-group-eyebrows-left-move" transform="matrix(1,0,0,1,1,0)"><g id="svga-group-eyebrows-left-rotate" transform="matrix(0.9914448857307434,0.13052619993686676,-0.13052619993686676,0.9914448857307434,11.486417770385742,-9.64889144897461)"><g id="svga-group-eyebrows-left"><path id="SvgjsPath7592" d="M74.2 77.6 71 79l-5 9 8.5-4.6 17.3 3.7.9-6z" fill="#3b3128" stroke-width="none" opacity="1" stroke="none"></path><path id="SvgjsPath7593" d="m87.9 84-1.2-4-1.7-.4 2.9 4.4zM73 78.2l5.6 4.6-4.4-5.2-1.2.6zm6.9.5 3.8 5-1.9-4.6-1.9-.4zm-11.7 5.4 2.7-1.5-2.1.5-.6 1zm14.7-4.8 1.7 1.9-.5-1.7-1.2-.2zm-12.4.7 3.8.8L71 79l-.5 1zm16.6.1 3.5 5.2-1.4-4.7-2.1-.5z" fill="#4a423a" stroke-width="none" opacity="1" stroke="none"></path></g></g></g><g id="svga-group-eyebrows-right-move" transform="matrix(1,0,0,1,-1,0)"><g id="svga-group-eyebrows-right-rotate" transform="matrix(0.9914448857307434,-0.13052618503570557,0.13052618503570557,0.9914448857307434,-9.775394439697266,16.456348419189453)"><g id="svga-group-eyebrows-right"><path id="SvgjsPath7594" d="m107.3 81.1.9 6 17.3-3.7L134 88l-5-9-3.2-1.4z" fill="#3b3128" stroke-width="none" opacity="1" stroke="none"></path><path id="SvgjsPath7595" d="m115 79.6-1.7.3-1.2 4 2.9-4.3zm10.8-2-4.4 5.2 5.6-4.6-1.2-.6zm-7.6 1.5-1.9 4.6 3.8-5-1.9.4zm12.9 4-2.1-.5 2.7 1.5-.6-1zm-15.2-3.6-.5 1.7 1.7-1.9-1.2.2zM129 79l-3.2 1.8 3.8-.8-.6-1zm-18.2 1.5-1.4 4.7 3.5-5.2-2.1.5z" fill="#4a423a" stroke-width="none" opacity="1" stroke="none"></path></g></g></g><g id="svga-group-beardwrap"><g id="svga-group-beard-single-move" transform="matrix(1,0,0,1,0,1)"><g id="svga-group-beard-single" transform="matrix(0.8999996000000001,0,0,0.8999996000000001,10.005040325176992,13.33505318741149)"><path id="SvgjsPath7329" d="m139.1 103.7-5 2.3-1.6 6.3-.9 9.1-8 4.4-2.5-8.3-5.9-.9-8 .9-5.2 2.5h-3.9l-5.2-2.5-8-.9-5.9.9-2.5 8.3-8-4.4-.9-9.1L66 106l-5-2.3-4 19.1 1.6 9.2 28.2 31h26.5l28.2-30.9 1.6-9.2-.8-14.6-3.2-4.6zm-29.4 37.5-3.8 1.4-2.3-1v-2.9h-7.2v2.9l-2.3 1-3.8-1.4-7.4-12.6 1.1-3.5 5 1.9h7.9l2.5-.8h1.2l2.5.8h7.9l5-1.9 1.1 3.5-7.4 12.6z" fill="#543c32" stroke-width="none" opacity="1" stroke="none"></path><path id="SvgjsPath7330" d="m105.9 142.6-2.3-.9.7 10.1 1.9-8.1 1.1 9.3.5-9.1 3.5-1.4.5 6.2.8-7.5.4 6.1 1.6-9.8 2.6-6-.1-2.7-7.4 12.6-3.8 1.2zm-9.5-.9-2.3 1-3.8-1.4-5.2-8.8c1.4 3.4 3.9 9.1 3.9 9.1l1.6 6.7 1.3-5.1 2 10.2 1.9-9.4.9 5.8.8-5.6.5-5.3h-1.7l.1 2.8zm-13.6-13.1 1.1-3.5 5 1.9h7.9l2.5-.8h1.2l2.5.8h7.9l5-1.9 1.1 3.5-.2-3.3 2.4-5.5-3.4 4.6-5.2 1.9-7.3-.1-3.6-2.4-3.8 2.4-7.8-.4-5.5-4.2.3 2.6-4.1-6.6 4 11zm-10 5.8c-.1-.7-.7-7.4-1-11.2l-1.3-.7c.8 4.3 2.4 12.6 2.3 11.9zm3.6-8.6L75 125l.8 4 .6-3.2zm-2.3 4.1c0-.4.1-3.1.2-5.3l-1.9-1c.7 2.8 1.7 6.8 1.7 6.3zm-4.8-1.8c0-.4.3-3.7.5-5.9l-1.4-.8s.9 7.4.9 6.7zm56.1-1.9c0 .5 1.5 12.2 1.5 12.2l.4-13.4 1.2 5 .9-6.4.9 2.4.5-3.2.9 1.2-.3-2.5-8 4.4.4 6.6c.1-.1 1.6-6.8 1.6-6.3zM57 122.8l1.6 12.2L74 152l12.7 11h26.5l13-11.1 15.2-16.8 1.6-12.2s-2 7.5-2.2 8c-.3.5-2.3 2.7-2.3 2.7v-4.2s-.9 4.6-.9 5c0 .4-11.6 11.8-11.6 11.8s-.4-3.6-.4-4c0-.4-.9 5.4-.9 5.4l-.5-7.4-1.2 9.3-8.5 7.5-.4-2.7-1.1 3.7-13.3-1.9-12.1 1.5-8.3-7.4-1.5-5.2s-.7 2.8-.7 3.2c0 .4-2.6-7.8-2.6-7.8l.4 5.2-3.2-3.5-2.6-9.4v6.9l-6.9-7.7-2.5-9 1.1-19.2-3 5-.8 14.1z" fill="#452c22" stroke-width="none" opacity="1" stroke="none"></path></g></g></g><g id="svga-group-mustache-single-move" transform="matrix(1,0,0,1,0,0)"><g id="svga-group-mustache-single"></g></g><g id="svga-group-nose-single-move" transform="matrix(1,0,0,1,0,0)"><g id="svga-group-nose-single"><path id="SvgjsPath8683" d="m96.12 99.91-.45 6.4-5.78 8.87 2.98 2.25 1.63-2.02 4.32 3.82h2.41l4.27-3.82 1.57 1.96 3.15-2.19-5.79-8.92-.56-6.46-3.82-1.63z" fill="#fae1d3" stroke-width="none" opacity="1" transform="translate(0 1)" stroke="none"></path><path id="SvgjsPath8684" d="m104.86 106.44-1.95-15.67 1.1 14.55-.86-.22 6.58 10.06-2.34 1.73-1.28-1.51.28-1.34-5.15 4.47h-2.4l-5.15-4.47.29 1.34-1.29 1.51-2.34-1.73 6.59-10.06-.86.22 1.33-22.81-2.19 23.93-5.82 8.83 3.81 2.79 1.44-2.01 4.19 3.91h2.4l4.2-3.91 1.43 2.01 3.81-2.79z" fill="#dba98d" stroke-width="none" opacity="1" transform="translate(0 1)" stroke="none"></path><path id="SvgjsPath8685" d="m96.15 113.17 2.37 1.46 3.1.06 2.55-1.16-.3-1.76-3.59-.6-3.94.66z" fill="#ffeee4" stroke-width="none" opacity="1" transform="translate(0 1)" stroke="none"></path></g></g><g id="svga-group-hair-front"></g><g id="svga-group-glasses-single-move" transform="matrix(1,0,0,1,0,0)"><g id="svga-group-glasses-single"></g></g></g></g></g><rect id="svga-credit-rect" width="200" height="15" x="0" y="185" fill="#ecf0f1" opacity="0.5" style="display: none;"></rect><text id="svga-credit-text" font-family="Avenir Next, Roboto, Helvetica, Arial, sans-serif" font-size="10px" text-anchor="start" font-weight="400" size="10px" anchor="start" weight="400" fill="#333333" x="33.33795166015625" y="182.32963395118713" style="display: none;"><tspan id="SvgjsTspan7328" dy="13" x="33.33795166015625">Created on AvatarMaker.com</tspan></text></g><defs id="SvgjsDefs7275"></defs></svg>