<svg xmlns="http://www.w3.org/2000/svg" version="1.1" width="600px" height="600px" viewBox="0 0 200 200" style="overflow:hidden!important;"><g id="svga-group-wrapper"><g id="svga-group-backs-single"><path id="SvgjsPath7969" d="M0 0h200v200H0V0z" fill="#ecf0f1" stroke-width="none" opacity="1"></path></g><g id="svga-group-humanwrap-move" transform="matrix(1,0,0,1,0,0)"><g id="svga-group-humanwrap"><g id="svga-group-hair-back-move" transform="matrix(1,0,0,1,0,0)"><g id="svga-group-hair-back"></g></g><g id="svga-group-humanbody-back"><path id="SvgjsPath7920" d="m170 180.3-27.3-6.9-18-9.9-1.5-28.2H76.8l-1.5 28.2-18 9.9-27.3 6.9-9.1 19.7-3 20h164.2l-3-20z" fill="#f0c7b1" stroke-width="none" opacity="1" stroke="none"></path><path id="SvgjsPath7921" d="m76.8 135.3-1.5 28.2-18 9.9-27.3 6.9-9.1 19.7-3 20h14.6v-20l2.7-17.7 23.8-6.4 24.7-8.3 3.5-32.3z" fill="#d19271" stroke-width="none" opacity="1" stroke="none"></path></g><g id="svga-group-chinshadow-single"><path id="SvgjsPath7916" d="m122.4 140.2 1-1-.2-3.9H76.8l-.5 9.2 13.8 13.8h14.3z" fill="#c27b55" stroke-width="none" opacity="1" stroke="none"></path></g><g id="svga-group-humanbody-front"><path id="SvgjsPath7922" d="m92.8 168.3 2 7.9 6.9 4.6s-8.5-3-8.7-3.6c-.2-.6-.2-8.9-.2-8.9z" fill="#d19271" stroke-width="none" opacity="1" stroke="none"></path></g><g id="svga-group-clothes-single"><path id="SvgjsPath11692" d="m179.6 200-8.5-20-28.8-7.4-9.5-4.8-.1-1.5-8.3-8.8.2 3.5-1.1 12.2-7.6 7.9-9.1 1.9-2.1 5.7-2.1 2.9-7.5-9.3-10.7-1.2-5.8-7.3-3.2-13.1.2-3.2-8.3 8.8-.1 1.5-9.5 4.8L29 180l-8.6 20-3.4 20h165.9z" fill="#45838e" stroke-width="none" opacity="1" stroke="none"></path><path id="SvgjsPath11693" d="m29.9 200.7 3.6-10.8 24.9-9.6 7.2-3.2.3-2 11.5-5.7h.1l-2.1-8.7.2-3.2-8.3 8.8-.1 1.5-9.5 4.8L29 180l-8.6 20-3.4 20h12.6z" fill="#31737f" stroke-width="none" opacity="1" stroke="none"></path><path id="SvgjsPath11694" d="m132.8 167.8 2.7 19.2 1.2 8.7L125 188l-5.2-5.3-4.2-1.6 4 3.4-6.4 2.6-7.9 1.5 7-.6-8.7 11.8V220h1.7l-.8-19.8 7.8-12 1-.1 7.1-2.8 4.2 4.5 13.3 8.1-1.6-12.4-3.5-17.7zm-33.1 29.7 2.9-5.9-3.5 5-6.1-8.7-12.5-3.4 3.8-3.3-4.2 1.6L75 188l-11.7 7.7 1.2-8.7 2.7-19.2-3.4 17.7-1.6 12.4 13.3-8.1 4.6-4.9.5-.5 11.8 4.3 6.1 8.6-1.2.7 1.1 21.9h1.5l-1.3-21 1.1-1.4zm10.5-12.8-1.5-.8-.9 1.4 1.4 1 1-1.6zm-9.3 13.3 1.4 1 1-1.7-1.5-.8-.9 1.5zm-.8 18.6 1.4 1 1-1.7-1.5-.8-.9 1.5zm-69.7-35.3 6.8 21 1.2 17.7h1.4l-1.1-17.8-8.3-20.9zm130.5 19.3-1.2 19.4h1.9l1-19.2 7-18.2-8.7 18z" fill="#20636f" stroke-width="none" opacity="1" stroke="none"></path><path id="SvgjsPath11695" d="m127 162.5-1.1-1.4v13l-5.3 8 4.8 4.6s2.3-11.1 2.3-11.8c0-.7-.7-12.4-.7-12.4zm-53.2.1.5-2.3-1.8 2.5 1.2 13.4 2.1 9.5 3.8-4.3-3.9-6.1-1.9-12.7z" fill="#5c939d" stroke-width="none" opacity="1" stroke="none"></path></g><g id="svga-group-head" transform="matrix(1,0,0,1,0,0)"><g id="svga-group-ears-left-move" transform="matrix(1,0,0,1,0,0)"><g id="svga-group-ears-left"><path id="SvgjsPath11900" d="M63.1 91.8s-6-.7-10.6-3.7c0 0-3.5 9.4-4 14.4 0 0 6.7 13 10 18.5 0 0 5.2-.7 6.3-1.4l1.4-8.4-3.1-19.4z" fill="#f0c7b1" stroke-width="none" opacity="1" stroke="none"></path><path id="SvgjsPath11901" d="M53.3 90c-.2-.4-.8-1.9-.8-1.9 5.2.4 10.7 1.4 10.7 1.4l3 21.6-1.4 8.4c-1.1.7-6.3 1.4-6.3 1.4-.6-1-1.3-2.3-2.1-3.6l2.6 1 3-1.6s.7-11.2.5-11.5c-.1-.3-9-14.8-9.2-15.2z" fill="#e1ac8f" stroke-width="none" opacity="1" stroke="none"></path><path id="SvgjsPath11902" d="m50.3 100.9 2.8-5.5 5.2 6.8 2.2 9.5-1.4 1.9-4.3-7.6 1-4.7-2.6-4z" fill="#d19271" stroke-width="none" opacity="1" stroke="none"></path></g></g><g id="svga-group-ears-right-move" transform="matrix(1,0,0,1,0,0)"><g id="svga-group-ears-right"><path id="SvgjsPath11903" d="M136.9 91.8s6-.7 10.6-3.7c0 0 3.5 9.4 4 14.4 0 0-6.7 13-10 18.5 0 0-5.2-.7-6.3-1.4l-1.4-8.4 3.1-19.4z" fill="#f0c7b1" stroke-width="none" opacity="1" stroke="none"></path><path id="SvgjsPath11904" d="M146.7 90c.2-.4.8-1.9.8-1.9-5.2.4-10.7 1.4-10.7 1.4l-3 21.6 1.4 8.4c1.1.7 6.3 1.4 6.3 1.4.6-1 1.3-2.3 2.1-3.6l-2.6 1-3-1.6s-.7-11.2-.5-11.5c.1-.3 9-14.8 9.2-15.2z" fill="#e1ac8f" stroke-width="none" opacity="1" stroke="none"></path><path id="SvgjsPath11905" d="m149.7 100.9-2.8-5.5-5.2 6.8-2.2 9.5 1.4 1.9 4.3-7.6-1-4.7 2.6-4z" fill="#d19271" stroke-width="none" opacity="1" stroke="none"></path></g></g><g id="svga-group-faceshape-wrap"><g id="svga-group-faceshape-single"><path id="SvgjsPath7902" d="M138.1 60c-6.9-11.6-19.7-19.5-19.7-19.5-7.2-1.5-18.4-2.3-18.4-2.3s-11.1.8-18.4 2.3c0 0-12.8 7.9-19.7 19.5 0 0-5.1 14.5-5.3 24.8l1.2 18.7 9.1 23.5 8 7.6 18 18.1h14.2l18-18.1 8-7.6 9.1-23.5 1.2-18.7c-.2-10.3-5.3-24.8-5.3-24.8z" fill="#f0c7b1" stroke-width="none" opacity="1" stroke="none"></path><path id="SvgjsPath7903" d="m93.2 150.3-24.4-24.7-7.7-23.7.3-18 4.3-22.1 17.4-18 16.7-4 18.6.7c-7.2-1.5-18.4-2.3-18.4-2.3s-11.1.8-18.4 2.3c0 0-12.8 7.9-19.7 19.5 0 0-5.1 14.5-5.3 24.8l1.2 18.7 9.1 23.5 8 7.6 18 18.1h14.2l18-18.1 8-7.6-27 23.4H93.2v-.1z" fill="#d19271" stroke-width="none" opacity="1" stroke="none"></path></g></g><g id="svga-group-mouth-single-move" transform="matrix(1,0,0,1,0,0)"><g id="svga-group-mouth-single"><path id="SvgjsPath12394" d="m84.99 125.5 2.75 3.94 12.37-.68 12.45.84 3.02-3.87-3.73 2.46-6.81-2.5-4.93 1.46-4.57-1.35-7.7 1.93z" fill="#da7c87" stroke-width="none" opacity="1" transform="translate(0 2)" stroke="none"></path><path id="SvgjsPath12395" d="m89.12 131.92 1.15 2.64 10.05 2.86 10.83-3.61-10.89 2.15-9.41-2.31-1.73-1.73z" fill="#d19271" stroke-width="none" opacity="1" transform="translate(0 2)" stroke="none"></path></g></g><g id="svga-group-eyes-left-move" transform="matrix(1,0,0,1,0,0)"><g id="svga-group-eyes-left"><g id="svga-group-eyesback-left"><path id="SvgjsPath12442" d="m90.8 100-2.5-7L77 89.8 69.6 92l5.6 8.3z" fill="#ffffff" stroke-width="none" opacity="1"></path></g><g id="svga-group-eyesiriswrapper-left" transform="matrix(1,0,0,1,0,0)"><g id="svga-group-eyesiriscontrol-left" transform="matrix(1,0,0,1,0,0)"><g id="svga-group-eyesiris-left"><path id="SvgjsPath9781" d="m77.2 97.7-.8-5 3.8-3.3 4.8 1.8.9 5-3.9 3.2z" fill="#4e60a3" stroke-width="none" opacity="1" stroke="none"></path><path id="SvgjsPath9782" d="m80.3 89.9 4.3 1.6.8 4.5-3.5 2.9-4.3-1.6-.8-4.5 3.5-2.9m-.1-1-4.3 3.6.9 5.5 5.2 1.9 4.3-3.6-.9-5.5-5.2-1.9z" fill="#43559b" stroke-width="none" opacity="1" stroke="none"></path><path id="SvgjsPath9783" d="m80.2 89.2 4.9 1.8.9 5.2-4 3.4-4.9-1.8-.9-5.2 4-3.4m-.1-.5-4.5 3.8 1 5.8 5.5 2 4.5-3.8-1-5.8-5.5-2z" fill="#253984" stroke-width="none" opacity="1" stroke="none"></path><path id="SvgjsPath9784" d="m78.1 95.4.7-3.1 3-1 2.3 2.2-.6 3-3 1z" fill="#000000" stroke-width="none" opacity="1"></path><path id="SvgjsPath9785" d="M79.1 91.9h1.8v1.8h-1.8v-1.8z" fill="#ffffff" stroke-width="none" opacity="1"></path><path id="SvgjsPath9786" d="M81.5 96.3h1v1h-1v-1z" fill="#ffffff" stroke-width="none" opacity="1"></path></g></g></g><g id="svga-group-eyesfront-left"><path id="SvgjsPath12450" d="M67.1 89.3v11.9l7.9 8.4h11.2l7.9-8.4V89.3l-7.9-8.4H75l-7.9 8.4zm2.5 2.7 7.4-2.2L88.3 93l2.5 7-15.6.3-5.6-8.3z" fill="#f0c7b1" stroke-width="none" opacity="1"></path><path id="SvgjsPath12451" d="m91.2 101.3-2.1-8.9-6.5-2.6-6.2-1-8.4 3.7 9-2.5 11 3.3z" fill="#000000" stroke-width="none" opacity="1"></path></g></g></g><g id="svga-group-eyes-right-move" transform="matrix(1,0,0,1,0,0)"><g id="svga-group-eyes-right"><g id="svga-group-eyesback-right"><path id="SvgjsPath12443" d="m109.2 100 2.5-7 11.3-3.2 7.4 2.2-5.6 8.3z" fill="#ffffff" stroke-width="none" opacity="1"></path></g><g id="svga-group-eyesiriswrapper-right" transform="matrix(1,0,0,1,0,0)"><g id="svga-group-eyesiriscontrol-right" transform="matrix(1,0,0,1,0,0)"><g id="svga-group-eyesiris-right"><path id="SvgjsPath9787" d="m115 97.7-.9-5 3.9-3.3 4.8 1.8.8 5-3.8 3.2z" fill="#4e60a3" stroke-width="none" opacity="1" stroke="none"></path><path id="SvgjsPath9788" d="m118.1 89.9 4.3 1.6.8 4.5-3.5 2.9-4.3-1.6-.8-4.5 3.5-2.9m-.2-1-4.3 3.6.9 5.5 5.2 1.9 4.3-3.6-.9-5.5-5.2-1.9z" fill="#43559b" stroke-width="none" opacity="1" stroke="none"></path><path id="SvgjsPath9789" d="m118 89.2 4.9 1.8.9 5.2-4 3.4-4.9-1.8-.9-5.2 4-3.4m-.1-.5-4.5 3.8 1 5.8 5.5 2 4.5-3.8-1-5.8-5.5-2z" fill="#152975" stroke-width="none" opacity="1" stroke="none"></path><path id="SvgjsPath9790" d="m115.9 95.4.6-3.1 3-1 2.4 2.2-.7 3-3 1z" fill="#000000" stroke-width="none" opacity="1"></path><path id="SvgjsPath9791" d="M116.9 91.9h1.8v1.8h-1.8v-1.8z" fill="#ffffff" stroke-width="none" opacity="1"></path><path id="SvgjsPath9792" d="M119.2 96.3h1v1h-1v-1z" fill="#ffffff" stroke-width="none" opacity="1"></path></g></g></g><g id="svga-group-eyesfront-right"><path id="SvgjsPath12452" d="M125 80.8h-11.2l-7.9 8.4v11.9l7.9 8.4H125l7.9-8.4V89.3l-7.9-8.5zm-.2 19.5-15.6-.3 2.5-7 11.3-3.2 7.4 2.2-5.6 8.3z" fill="#f0c7b1" stroke-width="none" opacity="1"></path><path id="SvgjsPath12455" d="m108.8 101.3 2.1-8.9 6.5-2.6 6.2-1 8.4 3.7-9-2.5-11 3.3z" fill="#000000" stroke-width="none" opacity="1"></path></g></g></g><g id="svga-group-facehighlight-single"></g><g id="svga-group-eyebrows-left-move" transform="matrix(1,0,0,1,0,0)"><g id="svga-group-eyebrows-left-rotate" transform="matrix(1,1.7453292519943295e-9,-1.7453292519943295e-9,1,1.4451326535436237e-7,-1.3849188462700113e-7)"><g id="svga-group-eyebrows-left"><path id="SvgjsPath10387" d="m93.14 86.42-2.25 1.3-5.33-4.44-7.38-2.05-10.03 2.6-2.98 2.04 2.93-3.55 10.1-3 9.18 2.23z" fill="#caa957" stroke-width="none" opacity="1" stroke="none"></path></g></g></g><g id="svga-group-eyebrows-right-move" transform="matrix(1,0,0,1,0,0)"><g id="svga-group-eyebrows-right-rotate" transform="matrix(1,1.7453292519943295e-9,-1.7453292519943295e-9,1,1.4451326535436237e-7,-2.1057397248114285e-7)"><g id="svga-group-eyebrows-right"><path id="SvgjsPath10388" d="m106.86 86.42 2.25 1.3 5.33-4.44 7.38-2.05 10.03 2.6 2.98 2.04-2.93-3.55-10.1-3-9.18 2.23z" fill="#caa957" stroke-width="none" opacity="1" stroke="none"></path></g></g></g><g id="svga-group-beardwrap"><g id="svga-group-beard-single-move" transform="matrix(1,0,0,1,0,0)"><g id="svga-group-beard-single"></g></g></g><g id="svga-group-mustache-single-move" transform="matrix(1,0,0,1,0,0)"><g id="svga-group-mustache-single"></g></g><g id="svga-group-nose-single-move" transform="matrix(1,0,0,1,0,0)"><g id="svga-group-nose-single"><path id="SvgjsPath7974" d="m96.12 99.91-.45 6.4-5.78 8.87 2.98 2.25 1.63-2.02 4.32 3.82h2.41l4.27-3.82 1.57 1.96 3.15-2.19-5.79-8.92-.56-6.46-3.82-1.63z" fill="#f0c7b1" stroke-width="none" opacity="1" transform="translate(0 1)" stroke="none"></path><path id="SvgjsPath7975" d="m104.86 106.44-1.95-15.67 1.1 14.55-.86-.22 6.58 10.06-2.34 1.73-1.28-1.51.28-1.34-5.15 4.47h-2.4l-5.15-4.47.29 1.34-1.29 1.51-2.34-1.73 6.59-10.06-.86.22 1.33-22.81-2.19 23.93-5.82 8.83 3.81 2.79 1.44-2.01 4.19 3.91h2.4l4.2-3.91 1.43 2.01 3.81-2.79z" fill="#d19271" stroke-width="none" opacity="1" transform="translate(0 1)" stroke="none"></path><path id="SvgjsPath7976" d="m96.15 113.17 2.37 1.46 3.1.06 2.55-1.16-.3-1.76-3.59-.6-3.94.66z" fill="#f8d5c3" stroke-width="none" opacity="1" transform="translate(0 1)" stroke="none"></path></g></g><g id="svga-group-hair-front"><path id="SvgjsPath8020" d="M143.01 63.98c-2.54-5.83-19.15-23.84-19.15-23.84L100 36.33l-23.86 3.8s-16.61 18-19.15 23.84l-.93 24.3 4.58 4.03h2.56l.73-24.9 17.21-16.84 7.32 8.24L100 60.55l11.54-1.75 7.32-8.24 17.21 16.84.73 24.9h2.56l4.58-4.03-.93-24.29z" fill="#bb973e" stroke-width="none" opacity="1" stroke="none"></path><path id="SvgjsPath8021" d="M123.86 40.14 100 36.33l-9.09 1.45-11.22 4.57s8.72 13.88 9.72 13.88c.99 0 12.49 1.78 13.48 1.59.99-.2 8.33-.99 8.33-.99l8.33-7.53 18.04 18.24.92 24.77h.86l4.58-4.03-.93-24.3c-2.55-5.84-19.16-23.84-19.16-23.84z" fill="#caa957" stroke-width="none" opacity="1" stroke="none"></path></g><g id="svga-group-glasses-single-move" transform="matrix(1,0,0,1,0,0)"><g id="svga-group-glasses-single"><path id="SvgjsPath11462" d="m65.4 93.1.5 5.4 3.7 4.7 9.8 2.1 7.9-1 6.2-4.1 1.9-6.1-3.2-3.1-8.4-1.1H77.4l-5.2-.1-4.4.9-2.4 2.4z" fill="#ffffff" stroke-width="none" opacity="0.44"></path><path id="SvgjsPath11463" d="m134.6 93.1-.5 5.4-3.7 4.7-9.8 2.1-7.9-1-6.2-4.1-1.9-6.1 3.3-3.1 8.4-1.1H122.7l5.2-.1 4.4.9 2.3 2.4z" fill="#ffffff" stroke-width="none" opacity="0.44"></path><path id="SvgjsPath11464" d="M95.6 93.9s3.8-1.7 8.6 0l.2 1s-5.7-.9-9 .1l.2-1.1z" fill="#070201" stroke-width="none" opacity="1" stroke="none"></path><path id="SvgjsPath11465" d="m92.3 90.6-8.6-1.1h-6.4l-5.3-.2-4.5.9-2.2 2.3h-2.5v2.1h2.4v.1l.4 3.9 3.9 4.9 9.9 2.1h.1l8-1.1 6.4-4.3 2.1-6.4-3.7-3.2zm.9 9.3-6 4-7.8 1-9.6-2-3.6-4.5-.5-5.2 2.1-2.3L72 90l5.2.1h6.4l8.3 1.1 3.1 2.9-1.8 5.8z" fill="#26120b" stroke-width="none" opacity="1" stroke="none"></path><path id="SvgjsPath11466" d="m104.1 94 2.1 6.4 6.4 4.3 8 1.1h.1l9.9-2.1 3.9-4.9.4-3.9v-.1h2.4v-2.1h-2.5l-2.2-2.3-4.5-.9-5.3.1h-6.4l-8.6 1.1-3.7 3.3zm.8.2 3.1-2.9 8.3-1.1h6.4l5.2-.1 4.2.9 2.1 2.3-.5 5.2-3.6 4.5-9.6 2-7.8-1-6-4-1.8-5.8z" fill="#26120b" stroke-width="none" opacity="1" stroke="none"></path></g></g></g></g></g><rect id="svga-credit-rect" width="200" height="15" x="0" y="185" fill="#ecf0f1" opacity="0.5" style="display: none;"></rect><text id="svga-credit-text" font-family="Avenir Next, Roboto, Helvetica, Arial, sans-serif" font-size="10px" text-anchor="start" font-weight="400" size="10px" anchor="start" weight="400" fill="#333333" x="33.40447998046875" y="182.60824704170227" style="display: none;"><tspan id="SvgjsTspan7784" dy="13" x="33.40447998046875">Created on AvatarMaker.com</tspan></text></g><defs id="SvgjsDefs7731"></defs></svg>