<svg xmlns="http://www.w3.org/2000/svg" version="1.1" width="600px" height="600px" viewBox="0 0 200 200" style="overflow:hidden!important;"><g id="svga-group-wrapper"><g id="svga-group-backs-single"><path id="SvgjsPath5701" d="M0 0h200v200H0V0z" fill="#ecf0f1" stroke-width="none" opacity="1" stroke="none"></path></g><g id="svga-group-humanwrap-move" transform="matrix(1,0,0,1,0,0)"><g id="svga-group-humanwrap"><g id="svga-group-hair-back-move" transform="matrix(1,0,0,1,0,0)"><g id="svga-group-hair-back"><path id="SvgjsPath8605" d="m61.9 125.5 1.3 15.8s0 6.9-.2 7.4-.6 6-.6 6l1.7 2.5 3.9-1.7-.5-8.2.2-9.8.5-4.9s.8 9.3.8 9.8.2 10.4.2 10.4l-.2 6.3 2.2 3 2.7-2.4-1.1-12.6.9-11.7.8 3s-.2 9.6-.2 10.1.6 11.7.6 11.7l2.1 2.7 6.8-10.4-2.5-14.7-6-10.7-8-2.8-4.7-.6-.7 1.8z" fill="#080806" stroke-width="none" opacity="1" stroke="none"></path><path id="SvgjsPath8606" d="m80.9 102.3-20.5-3.4 1.5 26.6 1.3 15.8s0 6.9-.2 7.4-.6 6-.6 6l1.7 2.5 1.3-.6-1.2-3.4.5-24 3.4 2.4v1.3-.4s.8 9.3.8 9.8.2 10.4.2 10.4l-.2 6.3 2.2 3 1.3-1.1-1.2-4.6-.5-23.3 2.9.5.1 2 .8 2.9s-.2 9.6-.2 10.1.6 11.7.6 11.7l2.1 2.7.4-.7 5-17.4-1.5-42.5zm57.2 23.2-1.3 15.8s0 6.9.2 7.4.6 6 .6 6l-1.7 2.5-3.9-1.7.5-8.2-.2-9.8-.5-4.9s-.8 9.3-.8 9.8-.2 10.4-.2 10.4l.2 6.3-2.2 3-2.7-2.4 1.1-12.6-.9-11.7-.8 3s.2 9.6.2 10.1-.6 11.7-.6 11.7l-2.1 2.7-6.8-10.4 2.5-14.7 6-10.7 8-2.8 4.7-.6.7 1.8z" fill="#000000" stroke-width="none" opacity="1" stroke="none"></path><path id="SvgjsPath8607" d="m116.1 102.3 21.6-8 .3 31.3-1.3 15.8s0 6.9.2 7.4.6 6 .6 6l-1.7 2.5-1.3-.6 1.2-3.4-.5-24-3.4 2.4v1.3-.4s-.8 9.3-.8 9.8-.2 10.4-.2 10.4l.2 6.3-2.2 3-1.3-1.1 1.2-4.6.5-23.3-2.9.5-.1 2-.8 2.9s.2 9.6.2 10.1-.6 11.7-.6 11.7l-2.1 2.7-.4-.7-5-17.4-1.4-42.6z" fill="#080806" stroke-width="none" opacity="1" stroke="none"></path></g></g><g id="svga-group-humanbody-back"><path id="SvgjsPath5652" d="m170 180.3-27.3-6.9-18-9.9-1.5-28.2H76.8l-1.5 28.2-18 9.9-27.3 6.9-9.1 19.7-3 20h164.2l-3-20z" fill="#4f2b19" stroke-width="none" opacity="1" stroke="none"></path><path id="SvgjsPath5653" d="m76.8 135.3-1.5 28.2-18 9.9-27.3 6.9-9.1 19.7-3 20h14.6v-20l2.7-17.7 23.8-6.4 24.7-8.3 3.5-32.3z" fill="#301406" stroke-width="none" opacity="1" stroke="none"></path></g><g id="svga-group-chinshadow-single"><path id="SvgjsPath5860" d="m121.8 145.8 1.8-2.6-.4-7.9H76.8l-.7 14.1L89 162.9l8.2-.9 8.2.9z" fill="#210b01" stroke-width="none" opacity="1" stroke="none"></path></g><g id="svga-group-humanbody-front"><path id="SvgjsPath5654" d="m92.8 168.3 2 7.9 6.9 4.6s-8.5-3-8.7-3.6c-.2-.6-.2-8.9-.2-8.9z" fill="#301406" stroke-width="none" opacity="1" stroke="none"></path></g><g id="svga-group-clothes-single"><path id="SvgjsPath9165" d="m182.6 199.8-8.6-19.4-2.7-.8-22.8-6.6-15.1-6.2.2-3.4-2.4-4.9.2-3.4-2.7-7-4.9-1.7-6 5.9-15 2.9h-5.6l-15-2.9-6-5.9-4.9 1.7-2.7 7 .2 3.4-2.4 4.9.3 3.4-15.2 6.2-22.8 6.6-2.7.8-8.6 19.4-2.1 20.2h169.4z" fill="#386e77" stroke-width="none" opacity="1"></path><path id="SvgjsPath9166" d="m106 171.1 16-2.7 8.5-5.8-8.2 7.1-16.3 1.4zm57.4 39.7 4.4-18.3 5.4-10.9-6.4 10-4.7 18.4.1 10.1h1.8l-.6-9.3zm-33-38.1-10.2 7.3s-14.5 2.2-15.3 2.2-14.5-.9-14.5-.9l-.9-4.2.9-5.6h11.3L90.4 169l-1.3-2.4 2.7-8.9 29.4-4 6.1-6-3.6-1.2-5.9 5.8-15.1 2.9h-5.5l-15.1-2.9-5.9-5.8-4.9 1.6-2.8 7 .2 3.4-2.3 4.9.2 3.4-15.1 6.2-22.8 6.6-2.8.8-8.5 19.4-2.1 20.2h10.9l-.2-20.8 7.4-12.2 4 14.5 2.4 18-1.3-18.3-3.5-15.1 10.7-2.7 25.6-6.4 18 6 15.1 1.1 16.2-2.5 10.5-7.8 2.1-7-2.8 5.9zm-57.2-21.8 4.2-1.5-3.7 2-1.3 6.4.4 2.9-1.1-3.4 1.5-6.4zm-4.5 17.8.2-5.6 2.9-2.1-2.2 2.5-.3 5.3.4 3-1-3.1zm3.1 4 1 3.1-1.7-2.9-.1-4.9 4.2-4.4-3.5 4.8.1 4.3zm4.4-16.7 4.2-3.4-3.7 4.1-.6 3.9.3 4.2-1-4.5.8-4.3zm1.5 22.1-1.6-2.9-.1-4.4 2.6-3.5-1.9 3.6v3.9l1 3.3zm3.6-.5.8 2.5-1.5-2.2-.3-4.7 2.5-3.9-1.7 4.3.2 4zm-.3-18.2-.2 5.1.1 2.9-.9-3.5.1-4.8 3.6-5.2-2.7 5.5zm3.9 19.7-.3-4.7 2.2-4.4-1.3 4.4.3 4.8 1.1 2.5-2-2.6zm.2-14.5.1 4.4-.9-4.6 3.2-8.1-2.4 8.3zm10.9-6.8.3 7.5.2 4.2s.3-4.2.3-4.5-.8-7.2-.8-7.2zm-.3 14.3.4 5.1v4.3s.8-3.8.8-4.2-1.2-5.2-1.2-5.2zm10.8-14.9 1.4 6s.7 6.6.7 6.2.3-6.4.3-6.4l-2.4-5.8zm-.3 15.1.6 4-.2 5.3.8-5.3-1.2-4zm12.5-16.6c.3 0 1.3 5.4 1.3 5.4l.1 6.5.5-6.8-1.9-5.1zm2.2-.2 1.8 4.8-.3 5.5.9-5.7-2.4-4.6zm-1.6 16 1.1 4.1-.5 4.1 1-4.4-1.6-3.8zm9-5.8 1.4 2.2.4 2.7-.5 1.9 1-2.2-.5-3.1-1.8-1.5zm-2.9-14.4 2.3 3.7 1 4.6-.7 3.6 1.2-3.9-1.1-5-2.7-3z" fill="#265e68" stroke-width="none" opacity="1"></path></g><g id="svga-group-head" transform="matrix(1,0,0,1,0,0)"><g id="svga-group-ears-left-move" transform="matrix(1,0,0,1,0,0)"><g id="svga-group-ears-left"><path id="SvgjsPath5932" d="m66.3 102.2-3-7.2-9.2-8-3.6 12.9 4.7 12.7-.4 5.6 5 2.4 6-11.1z" fill="#4f2b19" stroke-width="none" opacity="1"></path><path id="SvgjsPath5933" d="m52.5 100 1.9-8.4 3.7 10.6-.8 1 .4 5.9s-3.3-2.1-3.3-2.7.3-6.2.3-6.2l.9-.3-.9-4.5-1.6 6.1.4 3-1-4.5z" fill="#301406" stroke-width="none" opacity="1"></path><path id="SvgjsPath5934" d="m60.4 111.8-.7-12L54.1 87l9.2 8 3 7.2-.5 7.3-6 11.1-5-2.4 4.8.3z" fill="#401e0e" stroke-width="none" opacity="1"></path></g></g><g id="svga-group-ears-right-move" transform="matrix(1,0,0,1,0,0)"><g id="svga-group-ears-right"><path id="SvgjsPath5935" d="m133.7 102.2 3-7.2 9.2-8 3.6 12.9-4.7 12.7.4 5.6-5 2.4-6-11.1z" fill="#4f2b19" stroke-width="none" opacity="1"></path><path id="SvgjsPath5936" d="m147.5 100-1.9-8.4-3.7 10.6.8 1-.4 5.9s3.3-2.1 3.3-2.7-.3-6.2-.3-6.2l-.9-.3.9-4.5 1.6 6.1-.4 3 1-4.5z" fill="#301406" stroke-width="none" opacity="1"></path><path id="SvgjsPath5937" d="m139.6 111.8.7-12 5.6-12.8-9.2 8-3 7.2.5 7.3 6 11.1 5-2.4-4.8.3z" fill="#401e0e" stroke-width="none" opacity="1"></path></g></g><g id="svga-group-faceshape-wrap"><g id="svga-group-faceshape-single"><path id="SvgjsPath5848" d="M138.1 59.9c-6.9-11.6-19.7-19.5-19.7-19.5-7.2-1.5-18.4-2.3-18.4-2.3s-11.1.8-18.4 2.3c0 0-12.8 7.9-19.7 19.5 0 0-5.1 14.5-5.3 24.8l4.4 34.9L75.5 140 92 157.2l8.2-.9 8.2.9 16.5-17.2 14.5-20.4 4.4-34.9c-.6-10.3-5.7-24.8-5.7-24.8z" fill="#4f2b19" stroke-width="none" opacity="1" stroke="none"></path><path id="SvgjsPath5849" d="m99.8 155.1-7.5.2-13-18-14-19.2L60.6 84l5.2-23 17-18.2 17-2.5 18.6.1c-7.2-1.5-18.4-2.3-18.4-2.3s-11.1.8-18.4 2.3c0 0-12.8 7.9-19.7 19.5 0 0-5.1 14.5-5.3 24.8l4.4 34.9L75.5 140 92 157.2l8.2-.9 8.2.9 16.5-17.2-16.9 15.8-8.2-.7z" fill="#301406" stroke-width="none" opacity="1" stroke="none"></path><path id="SvgjsPath5850" d="m98.6 152.1-.3-2.8 2.5-2.6-1.4 3.2z" fill="#401e0e" stroke-width="none" opacity="1" stroke="none"></path></g></g><g id="svga-group-mouth-single-move" transform="matrix(1,0,0,1,0,0)"><g id="svga-group-mouth-single"><path id="SvgjsPath5723" d="m82.7 123.9 1.5 4.2 10.2 9.1 13.4.1 8.6-8.4 1.1-5.2-17.4 4.4z" fill="#000000" stroke-width="none" opacity="1" transform="translate(0 2)"></path><path id="SvgjsPath5724" d="m100.1 128.1-17.4-4.2 1.9 4.1 15.4 3.5 16.1-2.8 1.4-5z" fill="#ffffff" stroke-width="none" opacity="1" transform="translate(0 2)"></path><path id="SvgjsPath5725" d="m81.8 123.6 18.3 4.8 18.8-5-19 3.3z" fill="#60372b" stroke-width="none" opacity="1" transform="translate(0 2)" stroke="none"></path><path id="SvgjsPath5726" d="m117.4 121.1 1 2.4.2 2.7.7-2.4-.9-2.3-1-.4zm-34.9.5-.9 2.3.7 2.4.2-2.7 1-2.4-1 .4z" fill="#401e0e" stroke-width="none" opacity="1" transform="translate(0 2)" stroke="none"></path><path id="SvgjsPath5727" d="M96.6 140.1s1.4.8 1.6.8c.2 0 6.4-.1 6.4-.1l.7-.9-8.7.2z" fill="#301406" stroke-width="none" opacity="1" transform="translate(0 2)" stroke="none"></path></g></g><g id="svga-group-eyes-left-move" transform="matrix(1,0,0,1,0,0)"><g id="svga-group-eyes-left"><g id="svga-group-eyesback-left"><path id="SvgjsPath6300" d="M91.2 95.7 86 91.1l-9 .1-7 3.8s5.8 4.3 7.2 4.9l8.8-.4 5.2-3.8z" fill="#ffffff" stroke-width="none" opacity="1"></path></g><g id="svga-group-eyesiriswrapper-left" transform="matrix(1,0,0,1,0,0)"><g id="svga-group-eyesiriscontrol-left" transform="matrix(1,0,0,1,0,0)"><g id="svga-group-eyesiris-left"><path id="SvgjsPath6523" d="m79.4 99.5-2.6-1.9-1-3 1-3.1 2.6-1.9h3.2l2.6 1.9 1 3.1-1 3-2.6 1.9z" fill="#31220e" stroke-width="none" opacity="1"></path><path id="SvgjsPath6524" d="m82.5 89.8 2.5 1.8.9 2.9-.9 3-2.5 1.8h-3.1L77 97.5l-.9-2.9.9-2.9 2.5-1.8h3m.2-.6h-3.4l-2.8 2-1.1 3.2 1.1 3.2 2.8 2h3.4l2.8-2 1.1-3.2-1.1-3.2-2.8-2z" fill="#120b02" stroke-width="none" opacity="1"></path><path id="SvgjsPath6525" d="M81.8 91.9h-1.6l-1.4 1-.6 1.7.6 1.6 1.4 1h1.6l1.4-1 .6-1.6-.6-1.7z" fill="#000000" stroke-width="none" opacity="1"></path><path id="SvgjsPath6526" d="m82.4 99.2.2-.8.9.2.1-.9.8.2s-.2-.8-.1-.8.8.1.8.1l-.5-.8.8-.2-.4-.9.9-.3-.7-.5.5-.7-.7-.3.3-.9-.6-.2.2-.8h-.6l-.2-.6h-.4l-.1-.6 1.3.7.8 1.9.5 1.5-.1.5-.8 2.5-2 1.5-.9.6-2.4-.2.5-.6.5.4.6-.4.8.4z" fill="#120b02" stroke-width="none" opacity="1"></path><path id="SvgjsPath6527" d="m76.9 95.9 1.2-.4v.2l-1.2.3v-.1zm.9-1.8c-.5-.1-1-.1-1.1-.1l-.1-.2s.1 0 1.1.1l.1.2zm.5-2.9.1-.1.6.8-.1.1-.6-.8zm2.2-.7h.2v.9h-.2v-.9zm2.8 1.7.7-.6.1.1-.7.6-.1-.1zm.9 1.7.7-.1v.2l-.7.1v-.2zm-.2 1.7.1-.2.7.3-.1.2-.7-.3zm-1.5 1.6.2-.1.4.8-.2.1-.4-.8zm-3.2 1.5.4-1.2.2.1-.4 1.2-.2-.1zm-1.2-1.3.3-.4.1.1-.3.4-.1-.1z" fill="#000000" stroke-width="none" opacity="1"></path><path id="SvgjsPath6528" d="m80.6 92.1-1-.3-.7.7.2.9 1 .3.7-.7z" fill="#ffffff" stroke-width="none" opacity="1"></path><path id="SvgjsPath6529" d="m82.7 96.3-.5-.4-.6.4v.6l.6.4.5-.4z" fill="#ffffff" stroke-width="none" opacity="1"></path></g></g></g><g id="svga-group-eyesfront-left"><path id="SvgjsPath6308" d="M67.1 89.3v11.9l7.9 8.4h11.2l7.9-8.4V89.3l-7.9-8.4H75l-7.9 8.4zm3 5.7 7-3.8 9-.1 5.1 4.6-5.2 3.9-8.8.4c-1.3-.8-7.1-5-7.1-5z" fill="#4f2b19" stroke-width="none" opacity="1" stroke="none"></path><path id="SvgjsPath6309" d="m91.7 96.1-1.2-.6-4.7-4.1H77l-7.2 4-1 .2 7.9-5 9.6-.1z" fill="#000000" stroke-width="none" opacity="1" stroke="none"></path><path id="SvgjsPath6310" d="m90.8 94-4-4.1-9.8-.1-8.1 3.6 8.1-3.1h9.7z" fill="#401e0e" stroke-width="none" opacity="1" stroke="none"></path></g></g></g><g id="svga-group-eyes-right-move" transform="matrix(1,0,0,1,0,0)"><g id="svga-group-eyes-right"><g id="svga-group-eyesback-right"><path id="SvgjsPath6301" d="m108.8 95.7 5.1-4.6 9 .1 7 3.8s-5.8 4.3-7.2 4.9l-8.8-.4-5.1-3.8z" fill="#ffffff" stroke-width="none" opacity="1"></path></g><g id="svga-group-eyesiriswrapper-right" transform="matrix(1,0,0,1,0,0)"><g id="svga-group-eyesiriscontrol-right" transform="matrix(1,0,0,1,0,0)"><g id="svga-group-eyesiris-right"><path id="SvgjsPath6530" d="m117.4 99.5-2.6-1.9-1-3 1-3.1 2.6-1.9h3.2l2.6 1.9 1 3.1-1 3-2.6 1.9z" fill="#31220e" stroke-width="none" opacity="1"></path><path id="SvgjsPath6531" d="m120.5 89.8 2.5 1.8.9 2.9-.9 2.9-2.5 1.8h-3.1l-2.5-1.8-.9-2.9.9-2.9 2.5-1.8h3.1m.2-.5h-3.4l-2.8 2-1.1 3.2 1.1 3.2 2.8 2h3.4l2.8-2 1.1-3.2-1.1-3.2-2.8-2z" fill="#120b02" stroke-width="none" opacity="1"></path><path id="SvgjsPath6532" d="M119.8 91.9h-1.6l-1.4 1-.6 1.7.6 1.6 1.4 1h1.6l1.4-1 .6-1.6-.6-1.7z" fill="#000000" stroke-width="none" opacity="1"></path><path id="SvgjsPath6533" d="m120.4 99.2.2-.8.9.2.1-.9.8.2s-.2-.8-.1-.8.8.1.8.1l-.5-.8.8-.2-.4-.9.9-.3-.7-.5.5-.7-.7-.3.3-.9-.6-.2.2-.8h-.6l-.1-.5h-.4l-.1-.6 1.3.7.8 1.9.5 1.5-.1.5-.8 2.5-2 1.5-.9.6-2.4-.2.5-.6.5.4.6-.4.7.3z" fill="#120b02" stroke-width="none" opacity="1"></path><path id="SvgjsPath6534" d="m114.9 95.9 1.2-.4v.2l-1.2.4v-.2zm.9-1.8c-.5-.1-1-.1-1.1-.1l-.1-.2s.1 0 1.1.1l.1.2zm.5-2.9.1-.1.6.8-.1.1-.6-.8zm2.2-.7h.2v.9h-.2v-.9zm2.7 1.7.7-.6.1.1-.7.6-.1-.1zm1 1.7.7-.1v.2l-.7.1v-.2zm-.2 1.7.1-.2.7.3-.1.2-.7-.3zm-1.5 1.6.2-.1.4.8-.2.1-.4-.8zm-3.2 1.5.4-1.2.2.1-.4 1.2-.2-.1zm-1.2-1.3.3-.4.1.1-.3.4-.1-.1z" fill="#000000" stroke-width="none" opacity="1"></path><path id="SvgjsPath6535" d="m118.6 92.1-1-.3-.7.7.2.9 1 .3.7-.7z" fill="#ffffff" stroke-width="none" opacity="1"></path><path id="SvgjsPath6536" d="m120.7 96.3-.5-.4-.6.4v.6l.6.4.5-.4z" fill="#ffffff" stroke-width="none" opacity="1"></path></g></g></g><g id="svga-group-eyesfront-right"><path id="SvgjsPath6311" d="M125 80.8h-11.2l-7.9 8.4v11.9l7.9 8.4H125l7.9-8.4V89.3l-7.9-8.5zm-2.3 19.1-8.8-.4-5.1-3.8 5.1-4.6 9 .1 7 3.8s-5.8 4.2-7.2 4.9z" fill="#4f2b19" stroke-width="none" opacity="1" stroke="none"></path><path id="SvgjsPath6314" d="m108.3 96.1 1.2-.6 4.7-4.1h8.8l7.2 4 1 .2-7.9-5-9.6-.1z" fill="#000000" stroke-width="none" opacity="1" stroke="none"></path><path id="SvgjsPath6315" d="m109.2 94 4-4.1 9.8-.1 8.1 3.6-8.1-3.1h-9.7z" fill="#401e0e" stroke-width="none" opacity="1" stroke="none"></path></g></g></g><g id="svga-group-facehighlight-single"></g><g id="svga-group-eyebrows-left-move" transform="matrix(1,0,0,1,0,0)"><g id="svga-group-eyebrows-left-rotate" transform="matrix(1,1.7453292519943295e-9,-1.7453292519943295e-9,1,1.4451326535436237e-7,-1.3849188462700113e-7)"><g id="svga-group-eyebrows-left"><path id="SvgjsPath6846" d="M92.8 80.6 91.1 86l-2.4 1-14.1-2.3-3.3 1.1-5.1 3.3s3.4-5.3 3.5-5.7c.1-.3 2.5-4.1 2.5-4.1l11.6.6 9 .7z" fill="#080806" stroke-width="none" opacity="1" stroke="none"></path><path id="SvgjsPath6847" d="m77.5 85.3-.4-.1-1.2-2.9-3.8-2.8 1.8.5 3.1 1.8c.1 0 .3 2.1.5 3.5zm2.9.4h-.2c.1-.9.1-2.4.1-2.6 0-.2.6-1.5 1.1-2.6l.3.1c-.4 1.6-.9 3.9-1.3 5.1zm4.6.8 5.6-5.6h.6c-.8 1.4-2 3.3-2.2 3.5-.2.1-1.8 1.2-3.3 2.2l-.7-.1zm.1-5.6h.2l-1.5 3.6-1.3 1.6-.4-.1 3-5.1zm-16.1 4c1.4-.5 2.6-1 2.8-1 .2-.1 1.3.5 2.2 1.1l-.8.3c-.6-.1-1-.2-1.1-.3-.1 0-1.8.3-3.5.7.1-.3.3-.5.4-.8z" fill="#000000" stroke-width="none" opacity="1" stroke="none"></path></g></g></g><g id="svga-group-eyebrows-right-move" transform="matrix(1,0,0,1,0,0)"><g id="svga-group-eyebrows-right-rotate" transform="matrix(1,1.7453292519943295e-9,-1.7453292519943295e-9,1,1.4451326535436237e-7,-2.1057397248114285e-7)"><g id="svga-group-eyebrows-right"><path id="SvgjsPath6848" d="m107.2 80.6 1.8 5.5 2.4 1 14.1-2.3 3.3 1.1 5.1 3.3s-3.4-5.3-3.5-5.7c-.1-.3-2.5-4.1-2.5-4.1l-11.6.6-9.1.6z" fill="#080806" stroke-width="none" opacity="1" stroke="none"></path><path id="SvgjsPath6849" d="m122.5 85.3.4-.1 1.2-2.9 3.8-2.8-1.8.5-3.1 1.8c-.1 0-.3 2.1-.5 3.5zm-2.9.4h.2c-.1-.9-.1-2.4-.1-2.6 0-.2-.6-1.5-1.1-2.6l-.3.1c.4 1.6.9 3.9 1.3 5.1zm-4.6.8-5.6-5.6h-.6c.8 1.4 2 3.3 2.2 3.5.2.1 1.8 1.2 3.3 2.2l.7-.1zm-.1-5.6h-.2l1.5 3.6 1.3 1.6.4-.1-3-5.1zm16.1 4c-1.4-.5-2.6-1-2.8-1-.2-.1-1.3.5-2.2 1.1l.8.3c.6-.1 1-.2 1.1-.3.1 0 1.8.3 3.5.7-.1-.3-.3-.5-.4-.8z" fill="#000000" stroke-width="none" opacity="1" stroke="none"></path></g></g></g><g id="svga-group-beardwrap"><g id="svga-group-beard-single-move" transform="matrix(1,0,0,1,0,0)"><g id="svga-group-beard-single"><path id="SvgjsPath8996" d="m91.09 140.58 2.53 6.84 6.18 4.31 7.18-5.08 1.98-6.18-9.05 1.11z" fill="#2a232b" stroke-width="none" opacity="1"></path><path id="SvgjsPath8997" d="m105.2 140.93-5.28.64-6.43-.72c.83 1.65 2.62 5.13 2.93 5.33.4.27 3.09 3.23 3.09 3.23l4.84-3.36.85-5.12z" fill="#1b141c" stroke-width="none" opacity="1"></path></g></g></g><g id="svga-group-mustache-single-move" transform="matrix(1,0,0,1,0,0)"><g id="svga-group-mustache-single"><path id="SvgjsPath8810" d="m98.1 118.8 1.3 1.6-.7 4.4-5.4.9.2-1.4-.9 1.6-4.9.9.2-1.3-1.2 1.5v-.9l-.9 1.1-3.1-.3.6-1.5-1 1.2-.2-1.8s2.9-3.3 3.1-3.4 7.6-2.6 7.6-2.6h5.3zm4.3 0-1.3 1.6.7 4.4 5.4.9-.2-1.4.9 1.6 4.9.9-.2-1.3 1.2 1.5v-.9l.9 1.1 3.1-.3-.6-1.5 1 1.2.2-1.8s-2.9-3.3-3.1-3.4-7.6-2.6-7.6-2.6h-5.3z" fill="#080806" stroke-width="none" opacity="1" stroke="none"></path><path id="SvgjsPath8811" d="M95.8 125c0 .2-.1-2-.1-2s-.5 1.3-.9 2.5l3.9-.6.7-4.4-1.3-1.6-5.3-.1s-7.4 2.5-7.6 2.6-3.1 3.4-3.1 3.4l.2 1.8 1-1.2-.6 1.5 1.8.2.3-2.2 2.1-2.5-1 2.4-.5 2.2.8-1.5 3.1-4.4-.5 2.2-.5 3 .9-3 1.4-3.3 3 .5-1.7 5 2.5-4.6-.7 3.6 1.4-3.6 3.7.7c-.3 1.2-.9 3-1 3.2-.1.3-1.2.3-1.2.3l.4-3.1s-1.2 2.8-1.2 3zm22.6-.3-.5.6-1.4-1.8.3 1.4-2.3-2.8 2.5 4.4-1.8-.1-1.8-2.1.1 1.2-2.7-4.7 1.4 5.1-.9-1.7.1 1.8-2.9-6.2 1.5 6.1-1.2-.9.4 1.2 3.6.6-.2-1.3 1.2 1.5v-.9l.9 1.1 3.1-.3-.6-1.5 1 1.2.2-1.9zm-10.7-6-5.3.1-1.3 1.6.7 4.4 2.7.4-1.1-1.7.3 1.4-.9-.5-.9-2.5 1-1.4 1.8 4.1-.3-2.6 1.1 2.9-1.2-5.2.8-.2 1.1 4.2V120l1.8 4.5-.9-4.5s.5-.6 1-1.1c-.1-.1-.4-.2-.4-.2z" fill="#000000" stroke-width="none" opacity="1" stroke="none"></path></g></g><g id="svga-group-nose-single-move" transform="matrix(1,0,0,1,0,0)"><g id="svga-group-nose-single"><path id="SvgjsPath5706" d="m102.25 118.74-4.52.04-2.04-2.71-3.77.47-1.73-3.34 3.91-7.46h11.82l3.96 7.54-1.81 3.34-3.66-.78z" fill="#4f2b19" stroke-width="none" opacity="1" transform="translate(0 1)" stroke="none"></path><path id="SvgjsPath5707" d="m105.92 105.74 3.52 7.45-1.56 2.88-2.69-.21.21-.43 2.8-.96-3.42.21-2.7 3.73h-4.14l-2.7-3.73-3.42-.21 2.8.96.21.43-2.7.21-1.55-2.88 3.52-7.45-4.35 7.56 2.07 3.73 3.94-.54 1.97 2.67h4.56l1.97-2.67 3.94.54 2.07-3.73z" fill="#301406" stroke-width="none" opacity="1" transform="translate(0 1)" stroke="none"></path><path id="SvgjsPath5708" d="m93.14 108.71 2.71 4.47 7.36.12-7.42.48z" fill="#301406" stroke-width="none" opacity="1" transform="translate(0 1)" stroke="none"></path><path id="SvgjsPath5709" d="m95.31 107.2 2.06 4.71 5.92.18 1.61-5.13z" fill="#573220" stroke-width="none" opacity="1" transform="translate(0 1)" stroke="none"></path></g></g><g id="svga-group-hair-front"><path id="SvgjsPath8603" d="m143.8 81.9-.1-9.4-1.8-.9-1-10.5-1.8-.2-2.6-7.7-1.9-.4-3.7-6.7-2.6.2-4.1-4.8-2.6-.2-4.9-3.9-2.8.7-5.5-2.4-3.7 1.4-4.7-1.4-4.7 1.4-3.7-1.4-5.5 2.4-2.8-.7-4.9 3.9-2.6.2-4.1 4.8-2.5-.2-3.8 6.7-1.9.4-2.7 7.7-1.7.2-1 10.5-1.8.9-.1 9.4-1.4 1.3 4.1 12.2 3-3.7-1.6-8 3.5-1.8-.7-8.7 2.6-1.1 1-6.7 4.4-1 1.3-5.7 5.1-.8 1-4.7 4.6.2 3-3.4 4.8 2.7 4.9-2.5 4 2.3v.2l.2-.1.2.1v-.2l4-2.3 4.9 2.5 4.8-2.7 3 3.4 4.6-.2 1 4.7 5.1.8 1.3 5.7 4.5 1 .9 6.7 2.6 1.1-.7 8.7 3.5 1.8-1.6 8 3 3.7 4.1-12.2z" fill="#080806" stroke-width="none" opacity="1" stroke="none"></path><path id="SvgjsPath8604" d="M95.4 38.1c-.3 1.9-.3 3.8-.3 5.8.1 1.9.3 3.8.7 5.7.3-1.9.3-3.8.3-5.8-.1-1.9-.2-3.8-.7-5.7zm-10 6.4c0 1.7.1 3.4.5 5.1.4-1.7.5-3.4.5-5.1 0-1.7-.1-3.4-.5-5.1-.4 1.7-.5 3.4-.5 5.1zm-6.7-1.7c-.5 1.4-.7 2.9-.9 4.3 0 .8.1 1.5.2 2.3.1.8.2 1.5.4 2.3.2-.8.3-1.6.3-2.3.1-.8.1-1.5.1-2.3.1-1.4.1-2.9-.1-4.3zm-6.4 7.4c0-.7-.1-1.4-.2-2.2-.2.7-.4 1.4-.5 2.1l-.3 2.1c.1.9.2 1.9.3 2.8.2.9.3 1.8.7 2.8.2-1 .2-1.9.2-2.8 0-.9-.1-1.8-.2-2.8v-2zm-6.4 4.1c-.5 1.7-.7 3.3-.8 5 .3 1.7.6 3.3 1.2 5 .1-1.7 0-3.4-.2-5 .1-1.6.1-3.3-.2-5zm-4 10.9c-.2-.8-.4-1.6-.7-2.4-.1.8-.1 1.7-.1 2.5s.1 1.6.2 2.4c.3 1.6.7 3.2 1.4 4.8.1-1.7-.1-3.3-.4-4.9-.1-.8-.2-1.7-.4-2.4zm-3.4 8.9c-.2 1.5-.1 3 .1 4.4.2 1.5.5 2.9 1.1 4.3.2-1.5.1-3-.1-4.4-.3-1.4-.6-2.9-1.1-4.3zm45.4-30.3c-.1 1.9-.1 3.8.3 5.8.5-1.9.6-3.8.7-5.7.1-1.9.1-3.8-.3-5.8-.5 1.9-.6 3.8-.7 5.7zm9.7.7c0 1.7.1 3.4.5 5.1.4-1.7.5-3.4.5-5.1 0-1.7-.1-3.4-.5-5.1-.4 1.7-.5 3.4-.5 5.1zm7.7-1.7c-.3 1.5-.2 2.9-.1 4.4 0 .8 0 1.5.1 2.3.1.8.2 1.6.3 2.3.2-.8.3-1.5.4-2.3.1-.8.1-1.5.2-2.3-.1-1.6-.3-3-.9-4.4zm7.1 7.3c-.1-.7-.3-1.4-.5-2.1-.1.7-.2 1.5-.2 2.2 0 .7 0 1.4.1 2.1-.1.9-.1 1.8-.2 2.8 0 .9 0 1.9.2 2.8.3-.9.5-1.8.7-2.8.1-.9.2-1.8.3-2.8-.1-.8-.2-1.5-.4-2.2zm5.7 4.2c-.3 1.7-.3 3.3-.2 5-.2 1.7-.4 3.3-.2 5 .6-1.6 1-3.3 1.2-5-.1-1.7-.3-3.3-.8-5zm4 10.9c-.2.8-.3 1.6-.4 2.4-.3 1.6-.5 3.2-.4 4.9.7-1.5 1.1-3.1 1.4-4.8.1-.8.2-1.6.2-2.4 0-.8 0-1.7-.1-2.5-.4.8-.6 1.6-.7 2.4zm3.5 8.9c-.6 1.4-.9 2.8-1.1 4.3-.2 1.5-.3 2.9-.1 4.4.6-1.4.9-2.8 1.1-4.3.1-1.4.3-2.8.1-4.4z" fill="#000000" stroke-width="none" opacity="1" stroke="none"></path></g><g id="svga-group-glasses-single-move" transform="matrix(1,0,0,1,0,0)"><g id="svga-group-glasses-single"><path id="SvgjsPath8068" d="m67.5 91.9-.1 5.4 2.2 6.9 3.5 3.6 6.7 1.9 6-.4 5.3-3.4 2.7-4.4.9-4-.2-5.9-8-3.6-9.7-1.4-7.8 1.8-1.5 3.5zm65 0 .1 5.4-2.2 6.9-3.5 3.6-6.7 1.9-6-.4-5.3-3.4-2.7-4.4-.9-4 .2-5.9 8-3.6 9.7-1.4 7.9 1.8 1.4 3.5z" fill="url(#SvgjsLinearGradient8069)" opacity="1"></path><path id="SvgjsPath8076" d="M95.4 91h8.7v1.4h-8.7V91zm-8.7-3.2-9.8-1.5-8.1 1.8-1.5 3.7-.1 5.5 2.3 6.9L73 108l6.8 1.9 6-.4 5.4-3.4 2.8-4.4 1-4.1-.3-6.1-8-3.7zm7 13.6-2.7 4.3-5.2 3.3-5.9.4-6.6-1.8-3.4-3.5-2.2-6.8.1-5.3 1.4-3.4 7.7-1.8 9.6 1.4 7.8 3.5.2 5.7-.8 4zm37.5-13.2-8.1-1.8-9.8 1.5-8.1 3.6-.3 6.1 1 4.1 2.8 4.4 5.4 3.4 6 .4 6.8-1.9 3.6-3.8 2.3-6.9-.1-5.5-1.5-3.6zm-1.1 15.8-3.4 3.5-6.6 1.8-5.9-.4-5.2-3.3-2.7-4.3-.9-3.9.2-5.7 7.8-3.5 9.6-1.4 7.7 1.8 1.4 3.4.1 5.3-2.1 6.7z" fill="#000000" stroke-width="none" opacity="1"></path><path id="SvgjsPath8077" d="m88.4 87.1-11.7-1.6-14.8 1.3v3.5l2.2 1.3 1.2 2.7 2.5.4.9-4.2 3-2.4s5-.6 5.2-.6 10.9 1.6 10.9 1.6l4.9 2.3 1.5 2.1.2 1.8L96 94l.6-1.7-1-2.3-7.2-2.9zm34.8-1.5-11.7 1.6-7.2 2.9-.9 2.4.6 1.7 1.6 1.3.2-1.8 1.5-2.1 4.9-2.3s10.7-1.6 10.9-1.6 5.1.6 5.1.6l3 2.4.9 4.2 2.5-.4 1.2-2.7 2.2-1.3V87l-14.8-1.4z" fill="#26120b" stroke-width="none" opacity="1"></path><path id="SvgjsPath8078" d="m95.7 90-7.2-3-11.7-1.5L62 86.9v3.6l2.1 1.3 1.2 2.7 2.5.4h.1v-.1l.9-4.2 2.9-2.4 4-.5 1-.1c.3 0 .6.1 1 .1l2 .3c2.7.4 5.3.7 8 1.2l4.9 2.3 1.5 2.1.2 1.8v.2l.1-.1 1.6-1.3.6-1.7-.9-2.5zm.1 4.1-1.4 1.2-.2-1.7-1.5-2.1-4.9-2.3-8-1.2-2-.3c-.3 0-.7-.1-1-.1l-1 .1-4 .5-3 2.4-.9 4.1-2.4-.4-1.2-2.6-2.3-1.3v-3.5l14.8-1.2 11.7 1.6 7.1 2.8.9 2.3-.7 1.7zm42.3-3.6v-3.6l-14.8-1.4-11.7 1.5-7.2 2.9h-.1v.1l-.9 2.4.6 1.7 1.6 1.3.1.1v-.2l.2-1.8 1.5-2.1 4.9-2.3c2.7-.4 5.3-.8 8-1.2l2-.3c.3 0 .7-.1 1-.1l1 .1 4 .5 2.9 2.4.9 4.2v.1h.1l2.5-.4 1.2-2.7 2.2-1.2zm-.1-.1-2.1 1.3-1.2 2.6-2.4.4-.9-4.1-3-2.4-4-.5-1-.1c-.4 0-.7.1-1 .1l-2 .3-8 1.2-4.9 2.3-1.5 2.1-.2 1.7-1.4-1.2-.6-1.7.9-2.3 7.1-2.8 11.7-1.6 14.8 1.2-.3 3.5z" fill="#000000" stroke-width="none" opacity="1"></path></g></g></g></g></g><rect id="svga-credit-rect" width="200" height="15" x="0" y="185" fill="#ecf0f1" opacity="0.5" style="display: none;"></rect><text id="svga-credit-text" font-family="Avenir Next, Roboto, Helvetica, Arial, sans-serif" font-size="10px" text-anchor="start" font-weight="400" size="10px" anchor="start" weight="400" fill="#333333" x="33.40447998046875" y="182.60824704170227" style="display: none;"><tspan id="SvgjsTspan5512" dy="13" x="33.40447998046875">Created on AvatarMaker.com</tspan></text></g><defs id="SvgjsDefs5459"><linearGradient id="SvgjsLinearGradient7855" x1="80.8164" y1="86.5224" x2="80.8164" y2="109.8824" gradientUnits="userSpaceOnUse" class="svga-on-canvas-glasses-gradient-single-0-null"><stop id="SvgjsStop7856" stop-opacity="1" stop-color="#000000" offset="0" ></stop><stop id="SvgjsStop7857" stop-opacity="0" stop-color="#000000" offset="1" ></stop></linearGradient><linearGradient id="SvgjsLinearGradient7859" x1="-21.1836" y1="86.5224" x2="-21.1836" y2="109.8824" gradientTransform="matrix(-1 0 0 1 98 0)" gradientUnits="userSpaceOnUse" class="svga-on-canvas-glasses-gradient-single-1-null"><stop id="SvgjsStop7860" stop-opacity="1" stop-color="#000000" offset="0" ></stop><stop id="SvgjsStop7861" stop-opacity="0" stop-color="#000000" offset="1" ></stop></linearGradient><linearGradient id="SvgjsLinearGradient7911" x1="100" y1="86.57" x2="100" y2="109.62" gradientUnits="userSpaceOnUse" class="svga-on-canvas-glasses-gradient-single-0-null"><stop id="SvgjsStop7912" stop-opacity="1" stop-color="#3d2d1c" offset="0.0208" ></stop><stop id="SvgjsStop7913" stop-opacity="0.6291" stop-color="#402e1c" offset="0.3825" ></stop><stop id="SvgjsStop7914" stop-opacity="0.3897" stop-color="#48321d" offset="0.6159" ></stop><stop id="SvgjsStop7915" stop-opacity="0.1881" stop-color="#57381f" offset="0.8124" ></stop><stop id="SvgjsStop7916" stop-opacity="7.593334e-03" stop-color="#6c4221" offset="0.9884" ></stop><stop id="SvgjsStop7917" stop-opacity="0" stop-color="#6d4221" offset="0.9958" ></stop></linearGradient><linearGradient id="SvgjsLinearGradient7987" x1="80.146" y1="82.3035" x2="80.146" y2="112.0705" gradientUnits="userSpaceOnUse" class="svga-on-canvas-glasses-gradient-single-0-null"><stop id="SvgjsStop7988" stop-opacity="1" stop-color="#211810" offset="0" ></stop><stop id="SvgjsStop7989" stop-opacity="0.5916" stop-color="#231910" offset="0.4084" ></stop><stop id="SvgjsStop7990" stop-opacity="0.4056" stop-color="#2a1d12" offset="0.5944" ></stop><stop id="SvgjsStop7991" stop-opacity="0.2646" stop-color="#372415" offset="0.7354" ></stop><stop id="SvgjsStop7992" stop-opacity="0.1464" stop-color="#492e19" offset="0.8536" ></stop><stop id="SvgjsStop7993" stop-opacity="4.349256e-02" stop-color="#613b1e" offset="0.9565" ></stop><stop id="SvgjsStop7994" stop-opacity="0" stop-color="#6d4221" offset="1" ></stop></linearGradient><linearGradient id="SvgjsLinearGradient7996" x1="-19.1836" y1="82.3035" x2="-19.1836" y2="112.0705" gradientTransform="matrix(-1 0 0 1 100.6704 0)" gradientUnits="userSpaceOnUse" class="svga-on-canvas-glasses-gradient-single-1-null"><stop id="SvgjsStop7997" stop-opacity="1" stop-color="#211810" offset="0" ></stop><stop id="SvgjsStop7998" stop-opacity="0.5916" stop-color="#231910" offset="0.4084" ></stop><stop id="SvgjsStop7999" stop-opacity="0.4056" stop-color="#2a1d12" offset="0.5944" ></stop><stop id="SvgjsStop8000" stop-opacity="0.2646" stop-color="#372415" offset="0.7354" ></stop><stop id="SvgjsStop8001" stop-opacity="0.1464" stop-color="#492e19" offset="0.8536" ></stop><stop id="SvgjsStop8002" stop-opacity="4.349256e-02" stop-color="#613b1e" offset="0.9565" ></stop><stop id="SvgjsStop8003" stop-opacity="0" stop-color="#6d4221" offset="1" ></stop></linearGradient><linearGradient id="SvgjsLinearGradient8069" x1="100" y1="86.57" x2="100" y2="109.62" gradientUnits="userSpaceOnUse" class="svga-on-canvas-glasses-gradient-single-0-null"><stop id="SvgjsStop8070" stop-opacity="1" stop-color="#3d2d1c" offset="0.0208" ></stop><stop id="SvgjsStop8071" stop-opacity="0.6291" stop-color="#402e1c" offset="0.3825" ></stop><stop id="SvgjsStop8072" stop-opacity="0.3897" stop-color="#48321d" offset="0.6159" ></stop><stop id="SvgjsStop8073" stop-opacity="0.1881" stop-color="#57381f" offset="0.8124" ></stop><stop id="SvgjsStop8074" stop-opacity="7.593334e-03" stop-color="#6c4221" offset="0.9884" ></stop><stop id="SvgjsStop8075" stop-opacity="0" stop-color="#6d4221" offset="0.9958" ></stop></linearGradient></defs></svg>