<svg xmlns="http://www.w3.org/2000/svg" version="1.1" width="600px" height="600px" viewBox="0 0 200 200" style="overflow:hidden!important;"><g id="svga-group-wrapper"><g id="svga-group-backs-single"><path id="SvgjsPath3372" d="M0 0h200v200H0V0z" fill="#ecf0f1" stroke-width="none" opacity="1"></path></g><g id="svga-group-humanwrap-move" transform="matrix(1,0,0,1,0,0)"><g id="svga-group-humanwrap" transform="matrix(0.9999999,0,0,0.9999999,0.000009995000453955072,0.000012165971170929879)"><g id="svga-group-hair-back-move" transform="matrix(0.9999999999999999,-2.7755575615628914e-17,2.7755575615628914e-17,0.9999999999999999,1.4210854715202004e-14,2.842170943040401e-14)"><g id="svga-group-hair-back" transform="matrix(0.9599997000000001,0,0,0.9997997000000002,3.6680278456958604,0.023925835916884353)"><path id="SvgjsPath10438" d="m138.2 58.5 7.6 15.3-1.2 31.3-5.4 31.4-16.7 24.5-79.2 36s-5.7-16.6-5.7-17.5 21.2-55 21.2-55L50.9 73 79 41.9l35.1 4.5 24.1 12.1z" fill="#5c3d2e" stroke-width="none" opacity="1" stroke="none"></path></g></g><g id="svga-group-humanbody-back"><path id="SvgjsPath3439" d="m168.2 200-4.6-14.2-34.9-13.4-10.8-9.7-1.4-50.5h-33l-1.4 50.5-10.8 9.7-34.9 13.4-4.6 14.2-3 20h142.4z" fill="#fec9ac" stroke-width="none" opacity="1" stroke="none"></path><path id="SvgjsPath3440" d="m83.5 112.2-1.4 50.5-10.8 9.7-34.9 13.4-4.6 14.2-3 20H39v-20l1.7-13.3 32.1-12.9 14.1-9.5 2-52.1z" fill="#df946b" stroke-width="none" opacity="1" stroke="none"></path></g><g id="svga-group-chinshadow-single"><path id="SvgjsPath9549" d="m117.6 152.2-1.1-40h-33l-1.2 42.5c6.5 1.9 14.9 3.4 14.9 3.4s13.5-2.4 19.5-5.1c.1 0 .4-.3.9-.8z" fill="#d07c4e" stroke-width="none" opacity="1" stroke="none"></path></g><g id="svga-group-humanbody-front"></g><g id="svga-group-clothes-single"><path id="SvgjsPath10021" d="M53.7 208.5 52 220h95.9l-2.2-11.5z" fill="#00a2bd" stroke-width="none" opacity="1" stroke="none"></path><path id="SvgjsPath10022" d="m174.5 197.5-11-11.7-25.4 10-38.2 1.9-38.1-1.9-25.4-10-11 11.7 3.5 3.1-1.7 3.2 15.8 9.1.9 2.5 16.7.1-.3 1.9 19.9-1.5.4 1.5 10.7 2.3 4.4-.5h8.5l.2-1.3 13.1 1.9 2.5-1.1 19.6-1.3-.3-1.9 15 .3 2.6-2.9 14.5-8.4-.4-3.9z" fill="#09aac5" stroke-width="none" opacity="1" stroke="none"></path><path id="SvgjsPath10023" d="m29.7 200.2 8.8-11.6L28 198.8l1.7 1.4zm20.6-6.3-6.8 18.6 1 2.8 5.8-21.4zm14 4.4-3.5 18.8s2.9-.4 2.9-.8.6-18 .6-18zm16.4 18.6c.1-.4 2-17.3 2-17.3l2.7 18.2-4.7-.9zm21.7 1.9V200l1.9 17.4-1.9 1.4zm14.2.4c0-.4-2-19.9-2-19.9l4.4 18.8-2.4 1.1zm20.9-2.4-3.9-19.2 5.4 19.2h-1.5zm16.7-1.4-7.6-21.5 10.1 18.3-2.5 3.2zm16.8-11s-12.4-15.9-11.9-15.9 11.5 11.9 11.6 12.3.3 3.6.3 3.6zm1-7.3-9.1-10.5 9.7 9.9-.6.6z" fill="#00a2bd" stroke-width="none" opacity="1" stroke="none"></path><path id="SvgjsPath10024" d="m158.2 189.2 11.2 15.3-7.1 4.4-6.3-19.1 2.2-.6zm-12.8 5.7 7.8 19.9-7.8-.1-4.6-18.4 4.6-1.4zm-13.5 3c.2.5 4.1 18.5 4.1 18.5l-4.8.6-.8-18.7 1.5-.4zM114 202l1.4 16.3H112l2-16.3zm-12.8 0 .2 16.3-5.4-.5 2.8-16.6 2.4.8zm-20.1-2.6-1.7 15.3-4.6.6 6.3-15.9zm-18-.4c0 .6-2.7 15.7-2.7 15.7l-12.5-.8 11.2-17.1 4 2.2zM40 189.3c-.5.5-11.5 14.1-11.5 14.1l7.9 3.3 5.1-16.9-1.5-.5z" fill="#14b2cd" stroke-width="none" opacity="1" stroke="none"></path></g><g id="svga-group-head" transform="matrix(0.9999999999999999,-2.7755575615628914e-17,2.7755575615628914e-17,0.9999999999999999,1.4210854715202004e-14,2.842170943040401e-14)"><g id="svga-group-ears-left-move" transform="matrix(1,0,0,1,3,1)"><g id="svga-group-ears-left" transform="matrix(0.9499999,0,0,0.9499999,2.9875062611028653,5.185010598882286)"><path id="SvgjsPath5253" d="m65.4 98.3-5.3-9.7-7-.9-2 7.2.4 8.9 7 11.4 6.1 4.5 3.8-11.6z" fill="#fec9ac" stroke-width="none" opacity="1" stroke="none"></path><path id="SvgjsPath5254" d="m59.4 101.2-4.1-9.8-1.9 5.1.4 5 2.6 6.1-1.6-9.4 1.5-.7 1.3 10.8 2 2.1z" fill="#df946b" stroke-width="none" opacity="1" stroke="none"></path><path id="SvgjsPath5255" d="m61.7 101-3.2-11.6-5.4-1.7 7 .9 5.3 9.7 3 9.8-3.8 11.6-6.1-4.5 3.6.7z" fill="#efad8a" stroke-width="none" opacity="1" stroke="none"></path></g></g><g id="svga-group-ears-right-move" transform="matrix(1,0,0,1,-3,1)"><g id="svga-group-ears-right" transform="matrix(0.9499999,0,0,0.9499999,7.0125140250000015,5.185010598882286)"><path id="SvgjsPath5256" d="m134.6 98.3 5.3-9.7 7-.9 2 7.2-.4 8.9-7 11.4-6.1 4.5-3.8-11.6z" fill="#fec9ac" stroke-width="none" opacity="1" stroke="none"></path><path id="SvgjsPath5257" d="m140.6 101.2 4.1-9.8 1.9 5.1-.4 5-2.6 6.1 1.6-9.4-1.5-.7-1.3 10.8-2 2.1z" fill="#df946b" stroke-width="none" opacity="1" stroke="none"></path><path id="SvgjsPath5258" d="m138.3 101 3.2-11.6 5.4-1.7-7 .9-5.3 9.7-3 9.8 3.8 11.6 6.1-4.5-3.6.7z" fill="#efad8a" stroke-width="none" opacity="1" stroke="none"></path></g></g><g id="svga-group-faceshape-wrap" transform="matrix(0.9599997000000001,0,0,0.9997997000000002,4.000029847410957,0.01911863668097169)"><g id="svga-group-faceshape-single"><path id="SvgjsPath9537" d="M136.8 61c-6.7-11.2-19-18.9-19-18.9-7-1.5-17.8-2.2-17.8-2.2s-10.8.8-17.8 2.2c0 0-12.4 7.6-19 18.9 0 0-5 14-5.2 23.9l.7 14.9c2.2 14.2 5.4 25.3 5.4 25.3 4.9 9.4 16.4 20.8 16.4 20.8 6.1 2.6 19.5 5.1 19.5 5.1s13.5-2.4 19.5-5.1c0 0 11.4-11.4 16.4-20.8 0 0 3.2-11.1 5.4-25.3L142 85c-.3-9.9-5.2-24-5.2-24z" fill="#fec9ac" stroke-width="none" opacity="1" stroke="none"></path><path id="SvgjsPath9538" d="m91.8 141.8 8.6-2 7.7 2-7.8-4.2z" fill="#f6bb9b" stroke-width="none" opacity="1" stroke="none"></path><path id="SvgjsPath9539" d="M68.1 124c-1.5-5.2-4.9-23.7-4.9-23.7l-.5-16.5c.5-5.2 4.9-22.5 4.9-22.5 2.2-3.5 16-15.3 16-15.3l16.5-3.2 17.7-.7c-7-1.5-17.8-2.2-17.8-2.2s-10.8.8-17.8 2.2c0 0-12.4 7.6-19 18.9 0 0-5 14-5.2 23.9l.7 14.9c2.2 14.2 5.4 25.3 5.4 25.3 4.9 9.4 16.4 20.8 16.4 20.8 6.1 2.6 19.5 5.1 19.5 5.1s-17.3-5.5-18.3-6.5S68.1 124 68.1 124z" fill="#df946b" stroke-width="none" opacity="1" stroke="none"></path></g></g><g id="svga-group-mouth-single-move" transform="matrix(1,0,0,1,0,0)"><g id="svga-group-mouth-single" transform="matrix(0.8499995000000001,0,0,0.8499995000000001,15.157550410558684,20.24406619825743)"><path id="SvgjsPath11431" d="m86.12 128.47 10.5-2.08 3.9 2.03 3.33-2.19 11.79 2.28-8.05 7.56-6.99 1.62-6.5-1.54z" fill="#e28c7c" stroke-width="none" opacity="1" transform="translate(0 3)" stroke="none"></path><path id="SvgjsPath11432" d="m84.99 128.26 15.53 3.17 16.59-3.17-16.75 2.36z" fill="#d3715f" stroke-width="none" opacity="1" transform="translate(0 3)" stroke="none"></path></g></g><g id="svga-group-eyes-left-move" transform="matrix(1,0,0,1,1,1)"><g id="svga-group-eyes-left" transform="matrix(0.8999997000000001,0,0,0.8999997000000001,7.9650236661174745,10.005029938705817)"><g id="svga-group-eyesback-left"><path id="SvgjsPath11119" d="m91.1 104.4-2.5-6.8-10.9-3.1-7.2 2.1 5.5 8.1z" fill="#ffffff" stroke-width="none" opacity="1"></path></g><g id="svga-group-eyesiriswrapper-left" transform="matrix(1,0,0,1,0,0)"><g id="svga-group-eyesiriscontrol-left" transform="matrix(1,0,0,1,0,0)"><g id="svga-group-eyesiris-left"><path id="SvgjsPath7824" d="m80.1 103.9-2.4-1.7-.9-2.8.9-2.7 2.4-1.8H83l2.3 1.8.9 2.7-.9 2.8-2.3 1.7z" fill="#8a6a40" stroke-width="none" opacity="1" stroke="none"></path><path id="SvgjsPath7825" d="m82.9 95.2 2.2 1.6.8 2.6-.8 2.6-2.2 1.6h-2.8l-2.2-1.6-.8-2.6.8-2.6 2.2-1.6h2.8m.2-.5H80l-2.5 1.8-.9 2.9.9 2.9 2.5 1.8h3.1l2.5-1.8.9-2.9-.9-2.9-2.5-1.8z" fill="#6b491c" stroke-width="none" opacity="1" stroke="none"></path><path id="SvgjsPath7826" d="M82.3 97.1h-1.5l-1.3.9-.4 1.4.4 1.5 1.3.9h1.5l1.2-.9.5-1.5-.5-1.4z" fill="#000000" stroke-width="none" opacity="1"></path><path id="SvgjsPath7827" d="m82.8 103.6.1-.7.8.2.1-.8.8.2s-.2-.7-.1-.7.7.1.7.1l-.4-.8.7-.2-.4-.8.8-.3-.6-.4.4-.6-.6-.3.3-.8-.6-.2.2-.7h-.5l-.1-.4h-.3l-.1-.5 1.2.6.7 1.7.4 1.4-.1.5-.7 2.3-1.8 1.4-.8.5-2.1-.2.4-.6.5.3.5-.4.6.2z" fill="#6b491c" stroke-width="none" opacity="1" stroke="none"></path><path id="SvgjsPath7828" d="m77.8 100.6 1.1-.3v.2l-1.1.3v-.2zm.8-1.6c-.4-.1-.9-.1-1-.1v-.2s.1 0 1 .1v.2zm.5-2.6.1-.1.6.7-.1.1-.6-.7zm2-.6h.2v.8h-.2v-.8zm2.5 1.6.6-.6.1.1-.6.6-.1-.1zm.8 1.5.6-.1v.2h-.6v-.1zm-.2 1.5.1-.1.6.3-.1.1-.6-.3zm-1.3 1.4.1-.1.4.8-.1.1-.4-.8zm-2.9 1.3.4-1.1.2.1-.4 1.1-.2-.1zm-1-1.1.3-.4.1.1-.3.4-.1-.1z" fill="#6b491c" stroke-width="none" opacity="1" stroke="none"></path><path id="SvgjsPath7829" d="m81.2 97.2-.9-.3-.7.7.2.8.9.3.7-.6z" fill="#ffffff" stroke-width="none" opacity="1"></path><path id="SvgjsPath7830" d="m83.1 101-.5-.3-.6.3v.6l.6.3.5-.3z" fill="#ffffff" stroke-width="none" opacity="1"></path></g></g></g><g id="svga-group-eyesfront-left"><path id="SvgjsPath11127" d="M68 94.5v11.1l7.7 7.9h10.9l7.7-7.9V94.5l-7.7-7.9H75.7L68 94.5zm2.5 2.1 7.1-2.1 11 3.1 2.5 6.8-15.1.3-5.5-8.1z" fill="#fec9ac" stroke-width="none" opacity="1" stroke="none"></path><path id="SvgjsPath11128" d="m71.4 96.9 4.9 7.7 7.2-.1-7.5.4-5.9-7.9z" fill="#df946b" stroke-width="none" opacity="1" stroke="none"></path><path id="SvgjsPath11129" d="m91.9 105.9-2.5-9-11-4.6L65 94.7l4.1 2.6h2.5l7-2.5 9.9 2.9 2.2 6.6z" fill="#000000" stroke-width="none" opacity="1" stroke="none"></path></g></g></g><g id="svga-group-eyes-right-move" transform="matrix(1,0,0,1,-1,1)"><g id="svga-group-eyes-right" transform="matrix(0.8999997000000001,0,0,0.8999997000000001,12.035036333882516,10.005029938705817)"><g id="svga-group-eyesback-right"><path id="SvgjsPath11120" d="m108.9 104.4 2.5-6.8 10.9-3.1 7.2 2.1-5.5 8.1z" fill="#ffffff" stroke-width="none" opacity="1"></path></g><g id="svga-group-eyesiriswrapper-right" transform="matrix(1,0,0,1,0,0)"><g id="svga-group-eyesiriscontrol-right" transform="matrix(1,0,0,1,0,0)"><g id="svga-group-eyesiris-right"><path id="SvgjsPath7831" d="m117 103.9-2.3-1.7-.9-2.8.9-2.7 2.3-1.8h2.9l2.4 1.8.9 2.7-.9 2.8-2.4 1.7z" fill="#8a6a40" stroke-width="none" opacity="1" stroke="none"></path><path id="SvgjsPath7832" d="m119.8 95.2 2.2 1.6.8 2.6-.8 2.6-2.2 1.6H117l-2.2-1.6-.8-2.6.8-2.6 2.2-1.6h2.8m.2-.5h-3.1l-2.5 1.8-.9 2.9.9 2.9 2.5 1.8h3.1l2.5-1.8.9-2.9-.9-2.9-2.5-1.8z" fill="#6b491c" stroke-width="none" opacity="1" stroke="none"></path><path id="SvgjsPath7833" d="M119.2 97.1h-1.5l-1.2.9-.5 1.4.5 1.5 1.2.9h1.5l1.3-.9.4-1.5-.4-1.4z" fill="#000000" stroke-width="none" opacity="1"></path><path id="SvgjsPath7834" d="m119.7 103.6.1-.7.8.2.1-.8.8.2s-.2-.7-.1-.7.7.1.7.1l-.4-.8.7-.2-.4-.9.8-.3-.6-.4.4-.6-.6-.3.3-.8-.6-.2.2-.7h-.5l-.1-.4h-.3l-.1-.5 1.2.6.7 1.7.4 1.4-.1.5-.7 2.3-1.8 1.4-.8.5-2.1-.2.4-.6.5.3.5-.4.6.3z" fill="#6b491c" stroke-width="none" opacity="1" stroke="none"></path><path id="SvgjsPath7835" d="m114.7 100.6 1.1-.3v.2l-1.1.3v-.2zm.8-1.6c-.4-.1-.9-.1-1-.1v-.2s.1 0 1 .1v.2zm.5-2.6.1-.1.6.7-.1.1-.6-.7zm2-.6h.2v.8h-.2v-.8zm2.5 1.6.6-.6.1.1-.6.6-.1-.1zm.8 1.5.6-.1v.2l-.6.1v-.2zm-.2 1.5.1-.1.6.3-.1.1-.6-.3zm-1.2 1.4.1-.1.4.8-.1.1-.4-.8zm-3 1.3.4-1.1.2.1-.4 1.1-.2-.1zm-1-1.1.3-.4.1.1-.3.4-.1-.1z" fill="#6b491c" stroke-width="none" opacity="1" stroke="none"></path><path id="SvgjsPath7836" d="m118.1 97.2-.9-.3-.6.7.2.8.8.3.7-.6z" fill="#ffffff" stroke-width="none" opacity="1"></path><path id="SvgjsPath7837" d="m120 101-.5-.3-.5.3v.6l.5.3.5-.3z" fill="#ffffff" stroke-width="none" opacity="1"></path></g></g></g><g id="svga-group-eyesfront-right"><path id="SvgjsPath11130" d="M124.3 86.6h-10.9l-7.7 7.9v11.1l7.7 7.9h10.9l7.7-7.9V94.5l-7.7-7.9zm-.3 18.1-15.1-.3 2.5-6.8 11-3.1 7.1 2.1-5.5 8.1z" fill="#fec9ac" stroke-width="none" opacity="1" stroke="none"></path><path id="SvgjsPath11133" d="m128.6 96.9-4.9 7.7-7.2-.1 7.5.4 5.9-7.9z" fill="#df946b" stroke-width="none" opacity="1" stroke="none"></path><path id="SvgjsPath11134" d="m108.1 105.9 2.5-9 11-4.6 13.4 2.4-4.1 2.6h-2.5l-7-2.5-9.9 2.9-2.2 6.6z" fill="#000000" stroke-width="none" opacity="1" stroke="none"></path></g></g></g><g id="svga-group-facehighlight-single"></g><g id="svga-group-eyebrows-left-move" transform="matrix(1,0,0,1,1,2)"><g id="svga-group-eyebrows-left-rotate" transform="matrix(1,1.7453291312197194e-9,-1.7453291312197194e-9,1,1.5158184396568686e-7,-1.3953905408925493e-7)"><g id="svga-group-eyebrows-left"><path id="SvgjsPath11249" d="m92.2 87.2-1.7 3.5-14.6-4.1-8.2 2 5.9-5 3-.6z" fill="#543c32" stroke-width="none" opacity="1" stroke="none"></path><path id="SvgjsPath11250" d="m85.7 85.5 1.4.4.5 2.6-1.9-3zM76.6 83l3 3.6-4.3-3.4 1.3-.2zm6.4 1.7 1 3.1-2.6-3.5 1.6.4zm-12 1.1h1.9l-2.6.6.7-.6zm13.9-.6.2 1.1-1.2-1.3 1 .2zm-11.3-1.6 2.6 1.4-3.2-.8.6-.6zm15.7 2.8.5 3.1-2.3-3.5 1.8.4z" fill="#634e45" stroke-width="none" opacity="1" stroke="none"></path></g></g></g><g id="svga-group-eyebrows-right-move" transform="matrix(1,0,0,1,-1,2)"><g id="svga-group-eyebrows-right-rotate" transform="matrix(1,1.7453290479529926e-9,-1.7453290479529926e-9,1,1.5158182975483214e-7,-2.095267603863249e-7)"><g id="svga-group-eyebrows-right"><path id="SvgjsPath11251" d="m107.8 87.2 1.7 3.5 14.6-4.1 8.2 2-5.9-5-3-.6z" fill="#543c32" stroke-width="none" opacity="1" stroke="none"></path><path id="SvgjsPath11252" d="m114.3 85.5-1.4.4-.5 2.6 1.9-3zm9.1-2.5-3 3.6 4.3-3.4-1.3-.2zm-6.4 1.7-1 3.1 2.6-3.5-1.6.4zm12 1.1h-1.9l2.6.6-.7-.6zm-13.9-.6-.2 1.1 1.1-1.4-.9.3zm11.3-1.6-2.6 1.4 3.2-.8-.6-.6zm-15.7 2.8-.5 3.1 2.3-3.5-1.8.4z" fill="#634e45" stroke-width="none" opacity="1" stroke="none"></path></g></g></g><g id="svga-group-nose-single-move" transform="matrix(1,0,0,1,0,2)"><g id="svga-group-nose-single" transform="matrix(0.9499997000000001,0,0,0.9499997000000001,4.998280760073456,5.562783239170059)"><path id="SvgjsPath4395" d="m103.35 108.14-.8-.31 5.16 8.97-1.6 2.28-1.38-.95.22-1.02-1.09.47-1.6 3.15-2.1.08-2.5-.08-1.6-3.15-1.08-.47.21 1.02-1.38.95-1.59-2.28 5.15-8.97.33-10.76-1.13 11.07-5.22 8.81 2.54 3.31 2.17-1.58 1.24 2.76h5.33l1.23-2.76 2.18 1.58 2.54-3.31z" fill="#df946b" stroke-width="none" opacity="1" transform="translate(0 2)" stroke="none"></path><path id="SvgjsPath4396" d="m97.27 117.21 1.3.61 3.06.08 1.53-.69-.58-2.35-.98-3.1-2.03 4.07z" fill="#ffd2b9" stroke-width="none" opacity="1" transform="translate(0 2)" stroke="none"></path></g></g><g id="svga-group-hair-front" transform="matrix(0.9599997000000001,0,0,0.9997997000000002,3.5380265655177965,0.024086075382015792)"><path id="SvgjsPath10432" d="m76.3 163.2-4.6 14.9L60 190.5l.5 11.6-5.7 11-2.9-8.6-10.7-10.7.7-16.2L60 150l3.1-8.5 2.5 4.5 1.7-2.4 2.5 2.8z" fill="#5c3d2e" stroke-width="none" opacity="1" stroke="none"></path><path id="SvgjsPath10433" d="m120.2 54-21.6 2.3-22.6-1-12.2 13-.3 26.2 6.5 25.2-8.4 29.3-18.7 31.6 1.6 15.2 9 14.2v7.1L48 209l-13.6-10.6-3.5-22.6 7.7-22.3L49 125.4l-8.7-39.7 2.3-10 2.6-19.1 19.7-24.2 25.3-9.1 26.2 5.5 10.2 9.8.9 5.5 12.7 7.6 5.8 22.1-4.3 20.1-3.1.2-3.6-21.2L124.6 62l-4.4-8zm-55.5 93.3-8.5 31-5.9 9 1 12 3.1 5.1.3 8.7 1.5-10.5-2.6-5.1.3-10.5 6.7-7.2 4.1-32.5zm8.7 15.4-9.5 17.7-7.7 9.2 1 9 1 3.3.3-12 11-11.3 3.9-15.9z" fill="#6b4e40" stroke-width="none" opacity="1" stroke="none"></path><path id="SvgjsPath10434" d="m88.5 32.4-22.2 7.5-13 19.2 1 17.3 14 41.1-.4 9.1 2-7-6.5-25.2.3-26.2L76 55.3l22.6 1 21.6-2.3-7.7-14.6-24-7zm54 53.8-3.4-3.6-1.3-4.7h6.5l-4.1-3.1-6.7-9L120.2 54l4.2 7.9 10.4 10.9 3.6 21.2 3.1-.2-1.8-7.9 2.8.3zm-21.9-33.5 3.5-3.7 3-3.5-2.2 4.7-4.3 2.5zm-75.5 4 .3 26.8 13.4 41-1.8 25-7.8 18.3 9.2-18.1 3.5-27.2-14.4-41.2-2.4-24.6zm-4.9 29 9.2 40.6-15.1 51.5.1 20.6L48 209.1l5.5 8.1-5.7-11.9L37 198v-21l19.7-55-16.5-36.3z" fill="#634536" stroke-width="none" opacity="1" stroke="none"></path><path id="SvgjsPath10435" d="m86 45.8-15.1 1.9-11.5 17.1 2 18.1 2.2 5.8.2-20.4 12.3-12.9 22.6 1z" fill="#4c2d1e" stroke-width="none" opacity="1" stroke="none"></path><path id="SvgjsPath10436" d="m121.1 50-4.9-15.1L88 28.4l-24.3 8.2-16.1 22 2.3 22L65.3 120 60 150l-10.8 17.8-9.9 14.3 2 16.1 7.6 5.6-5.9-7.9-1.3-13.2L52.5 165l9.1-16 6.7-31.5-15.2-38.9-1.6-19.7 17.1-21 20.7-6.6 23.2 8.1z" fill="#73574a" stroke-width="none" opacity="1" stroke="none"></path><path id="SvgjsPath10437" d="m124.1 54.3 11.5 9.2 5.9 9.2 3.6 2.3-7.2-15.5z" fill="#7a6155" stroke-width="none" opacity="1" stroke="none"></path></g><g id="svga-group-glasses-single-move" transform="matrix(1,0,0,1,0,0)"><g id="svga-group-glasses-single"></g></g></g></g></g><rect id="svga-credit-rect" width="200" height="15" x="0" y="185" fill="#ecf0f1" opacity="0.5" style="display: none;"></rect><text id="svga-credit-text" font-family="Avenir Next, Roboto, Helvetica, Arial, sans-serif" font-size="10px" text-anchor="start" font-weight="400" size="10px" anchor="start" weight="400" fill="#333333" x="33.40447998046875" y="182.60824704170227" style="display: none;"><tspan id="SvgjsTspan3371" dy="13" x="33.40447998046875">Created on AvatarMaker.com</tspan></text></g><defs id="SvgjsDefs3323"></defs></svg>