<svg xmlns="http://www.w3.org/2000/svg" version="1.1" width="600px" height="600px" viewBox="0 0 200 200" style="overflow:hidden!important;"><g id="svga-group-wrapper"><g id="svga-group-backs-single"><path id="SvgjsPath3825" d="M0 0h200v200H0V0z" fill="#ecf0f1" stroke-width="none" opacity="1"></path></g><g id="svga-group-humanwrap-move" transform="matrix(1,0,0,1,0,0)"><g id="svga-group-humanwrap"><g id="svga-group-hair-back-move" transform="matrix(1,-2.636779683484747e-16,2.636779683484747e-16,1,-4.263256414560601e-14,2.842170943040401e-14)"><g id="svga-group-hair-back"></g></g><g id="svga-group-humanbody-back"><path id="SvgjsPath3776" d="m170 180.3-27.3-6.9-18-9.9-1.5-28.2H76.8l-1.5 28.2-18 9.9-27.3 6.9-9.1 19.7-3 20h164.2l-3-20z" fill="#f0c7b1" stroke-width="none" opacity="1" stroke="none"></path><path id="SvgjsPath3777" d="m76.8 135.3-1.5 28.2-18 9.9-27.3 6.9-9.1 19.7-3 20h14.6v-20l2.7-17.7 23.8-6.4 24.7-8.3 3.5-32.3z" fill="#d19271" stroke-width="none" opacity="1" stroke="none"></path></g><g id="svga-group-chinshadow-single"><path id="SvgjsPath9050" d="m112.9 157.7 10.7-14.9-.4-7.5H76.8l-.8 14.8 5.5 7.6 6.2 3.5h19z" fill="#c27b55" stroke-width="none" opacity="1" stroke="none"></path></g><g id="svga-group-humanbody-front"><path id="SvgjsPath3778" d="m92.8 168.3 2 7.9 6.9 4.6s-8.5-3-8.7-3.6c-.2-.6-.2-8.9-.2-8.9z" fill="#d19271" stroke-width="none" opacity="1" stroke="none"></path></g><g id="svga-group-clothes-single"><path id="SvgjsPath9081" d="m143.53 172.73-10.43 16.82-18.47 10.43H85.37L66.9 189.55l-10.43-16.82-13.16 3.66 5.3 19.2.91 24.41H150.48l.91-24.41 5.3-19.2z" fill="#78915a" stroke-width="none" opacity="1"></path><path id="SvgjsPath9082" d="m136.42 191.88-20.8 12.73H84.38l-20.8-12.73-9.77-17.83 8.49 18.39 21.65 12.88h32.1l21.65-12.88 8.49-18.39z" fill="#658244" stroke-width="none" opacity="1"></path></g><g id="svga-group-head" transform="matrix(1,-2.636779683484747e-16,2.636779683484747e-16,1,-4.263256414560601e-14,2.842170943040401e-14)"><g id="svga-group-ears-left-move" transform="matrix(1,0,0,1,0,0)"><g id="svga-group-ears-left"><path id="SvgjsPath5211" d="M64.4 98.1 54.2 87l-5.4 1.3 4.4 13.8-.1 8.8 4.1 8.5 3.8-.6 4.9-9.3z" fill="#f0c7b1" stroke-width="none" opacity="1" stroke="none"></path><path id="SvgjsPath5212" d="m52.8 97.9-2.3-8.8L58 102l-1.4.2 2.1 5.5-.1 5.1-4-3.7-.1-10.8-2.1-4.5z" fill="#d19271" stroke-width="none" opacity="1" stroke="none"></path><path id="SvgjsPath5213" d="M50.66 87.86 54.2 87l10.2 11.1 1.5 11.4-4.9 9.3-3.8.6-1.92-3.98c1.4 1.3 2.52 2.48 2.52 2.48l2.5-2s1-10.8 1.1-11.2c.1-.4-5.5-11.8-5.5-11.8l-5.24-5.04z" fill="#e1ac8f" stroke-width="none" opacity="1" stroke="none"></path></g></g><g id="svga-group-ears-right-move" transform="matrix(1,0,0,1,0,0)"><g id="svga-group-ears-right"><path id="SvgjsPath5214" d="M135.6 98.1 145.8 87l5.4 1.3-4.4 13.8.1 8.8-4.1 8.5-3.8-.6-4.9-9.3z" fill="#f0c7b1" stroke-width="none" opacity="1" stroke="none"></path><path id="SvgjsPath5215" d="m147.2 97.9 2.3-8.8L142 102l1.4.2-2.1 5.5.1 5.1 4-3.7.1-10.8 2.1-4.5z" fill="#d19271" stroke-width="none" opacity="1" stroke="none"></path><path id="SvgjsPath5216" d="M149.32 87.86 145.8 87l-10.2 11.1-1.5 11.4 4.9 9.3 3.77.58 1.96-4.01c-1.4 1.3-2.54 2.53-2.54 2.53l-2.5-2s-1-10.8-1.1-11.2c-.1-.4 5.5-11.8 5.5-11.8l5.23-5.04z" fill="#e1ac8f" stroke-width="none" opacity="1" stroke="none"></path></g></g><g id="svga-group-faceshape-wrap"><g id="svga-group-faceshape-single"><path id="SvgjsPath9040" d="M138.1 60c-6.9-11.6-19.7-19.5-19.7-19.5-7.2-1.5-18.4-2.3-18.4-2.3s-11.1.8-18.4 2.3c0 0-12.8 7.9-19.7 19.5 0 0-5.1 14.5-5.3 24.8l1 29.9 26.7 37.4 6.2 3.5h19l6.2-3.5 26.7-37.4 1-29.9c-.2-10.3-5.3-24.8-5.3-24.8z" fill="#f0c7b1" stroke-width="none" opacity="1" stroke="none"></path><path id="SvgjsPath9041" d="m91 153.7-4.9-5.3-22-36.1-1.3-25.6 3.3-23.3L82.5 44l17.4-3.6 18.5.1c-7.2-1.5-18.4-2.3-18.4-2.3s-11.1.8-18.4 2.3c0 0-12.8 7.9-19.7 19.5 0 0-5.1 14.5-5.3 24.8l1 29.9 26.7 37.4 6.2 3.5h19l6.2-3.5-8.6 1.5-16.1.1z" fill="#d19271" stroke-width="none" opacity="1" stroke="none"></path></g></g><g id="svga-group-mouth-single-move" transform="matrix(1,0,0,1,0,0)"><g id="svga-group-mouth-single"><path id="SvgjsPath4952" d="m84.99 125.5 2.75 3.94 12.37-.68 12.45.84 3.02-3.87-3.73 2.46-6.81-2.5-4.93 1.46-4.57-1.35-7.7 1.93z" fill="#da7c87" stroke-width="none" opacity="1" transform="translate(0 2)" stroke="none"></path><path id="SvgjsPath4953" d="m89.12 131.92 1.15 2.64 10.05 2.86 10.83-3.61-10.89 2.15-9.41-2.31-1.73-1.73z" fill="#d19271" stroke-width="none" opacity="1" transform="translate(0 2)" stroke="none"></path></g></g><g id="svga-group-eyes-left-move" transform="matrix(1,0,0,1,0,0)"><g id="svga-group-eyes-left" transform="matrix(0.9999999,0,0,0.9999999,0.000008059999842657817,0.00000952500037953996)"><g id="svga-group-eyesback-left"><path id="SvgjsPath6319" d="M89.9 95.9s-3.2-4.2-4.4-5.4l-7.6-.2s-3.9 3.4-5.6 5.9l4.5 5 8 .2s3.5-2.8 5.1-5.5z" fill="#ffffff" stroke-width="none" opacity="1"></path></g><g id="svga-group-eyesiriswrapper-left" transform="matrix(1,0,0,1,0,0)"><g id="svga-group-eyesiriscontrol-left" transform="matrix(1,0,0,1,0,0)"><g id="svga-group-eyesiris-left"><path id="SvgjsPath3793" d="m82.2 100.2-5.5-2-1-5.8 4.5-3.8 5.5 2.1 1 5.7z" fill="#430f0b" stroke-width="none" opacity="1" stroke="none"></path><path id="SvgjsPath3794" d="m78.2 95.4.6-3.1 3-1 2.4 2.1-.7 3.1-3 1z" fill="#000000" stroke-width="none" opacity="1"></path><path id="SvgjsPath3795" d="m78 91.7 2.2 2.1.6-.4-1.2-2.7z" fill="#ffffff" stroke-width="none" opacity="1"></path><path id="SvgjsPath3796" d="m82.1 96.4.5 1 .8-.4-.4-1z" fill="#ffffff" stroke-width="none" opacity="1"></path></g></g></g><g id="svga-group-eyesfront-left"><path id="SvgjsPath6327" d="M67.1 89.3v11.9l7.9 8.4h11.2l7.9-8.4V89.3l-7.9-8.4H75l-7.9 8.4zm5.2 6.9c1.8-2.5 5.6-5.9 5.6-5.9l7.6.2c1.2 1.2 4.4 5.4 4.4 5.4-1.6 2.7-5.1 5.5-5.1 5.5l-8-.2-4.5-5z" fill="#f0c7b1" stroke-width="none" opacity="1" stroke="none"></path><path id="SvgjsPath6328" d="M90.5 96.7 85.3 91l-7.2-.4s-5.1 4.8-6.9 6.9l3.2-4.7 3.2-3.1 8.4.3 4.5 6.7z" fill="#000000" stroke-width="none" opacity="1" stroke="none"></path><path id="SvgjsPath6329" d="m90.2 93.8-4.6-6.6-8.3-.4s-4.4 5.4-6.3 8.9c0 0 2.7-5.8 5.7-9.2l9.3.2 4.2 7.1z" fill="#e1ac8f" stroke-width="none" opacity="1" stroke="none"></path></g></g></g><g id="svga-group-eyes-right-move" transform="matrix(1,0,0,1,0,0)"><g id="svga-group-eyes-right" transform="matrix(0.9999999,0,0,0.9999999,0.000011939999765786524,0.000009515000527926532)"><g id="svga-group-eyesback-right"><path id="SvgjsPath6320" d="M110.1 95.9s3.2-4.2 4.4-5.4l7.6-.2s3.9 3.4 5.6 5.9l-4.5 5-8 .2s-3.5-2.8-5.1-5.5z" fill="#ffffff" stroke-width="none" opacity="1"></path></g><g id="svga-group-eyesiriswrapper-right" transform="matrix(1,0,0,1,0,0)"><g id="svga-group-eyesiriscontrol-right" transform="matrix(1,0,0,1,0,0)"><g id="svga-group-eyesiris-right"><path id="SvgjsPath3797" d="m119.8 100.2-5.5-2-1-5.8 4.5-3.8 5.5 2.1 1 5.7z" fill="#430f0b" stroke-width="none" opacity="1" stroke="none"></path><path id="SvgjsPath3798" d="m115.8 95.4.7-3.1 3-1 2.3 2.1-.6 3.1-3 1z" fill="#000000" stroke-width="none" opacity="1"></path><path id="SvgjsPath3799" d="m115.7 91.7 2.2 2.1.6-.4-1.2-2.7z" fill="#ffffff" stroke-width="none" opacity="1"></path><path id="SvgjsPath3800" d="m119.7 96.4.6 1 .8-.4-.4-1z" fill="#ffffff" stroke-width="none" opacity="1"></path></g></g></g><g id="svga-group-eyesfront-right"><path id="SvgjsPath6330" d="M125 80.8h-11.2l-7.9 8.4v11.9l7.9 8.4H125l7.9-8.4V89.3l-7.9-8.5zm-1.8 20.4-8 .2s-3.5-2.8-5.1-5.5c0 0 3.2-4.2 4.4-5.4l7.6-.2s3.9 3.4 5.6 5.9l-4.5 5z" fill="#f0c7b1" stroke-width="none" opacity="1" stroke="none"></path><path id="SvgjsPath6333" d="m109.5 96.7 5.2-5.7 7.2-.4s5.1 4.8 6.9 6.9l-3.2-4.7-3.2-3.1-8.4.3-4.5 6.7z" fill="#000000" stroke-width="none" opacity="1" stroke="none"></path><path id="SvgjsPath6334" d="m109.8 93.8 4.6-6.6 8.3-.4s4.4 5.4 6.3 8.9c0 0-2.7-5.8-5.7-9.2l-9.3.2-4.2 7.1z" fill="#e1ac8f" stroke-width="none" opacity="1" stroke="none"></path></g></g></g><g id="svga-group-facehighlight-single"></g><g id="svga-group-eyebrows-left-move" transform="matrix(1,0,0,1,3,3)"><g id="svga-group-eyebrows-left-rotate" transform="matrix(0.9825664732332882,-0.18591160716291477,0.18591160716291477,0.9825664732332882,-14.28231828197849,16.192974125479438)"><g id="svga-group-eyebrows-left" transform="matrix(1.0500001,0,0,1.0500001,-3.9600079581470595,-4.21250861573526)"><path id="SvgjsPath6767" d="m94 85.8-.6 2.4-2.4 1.6-13.1-7.1-7.9-.2-5.6 4.1 4.8-6 8.5-1.9 10.2 3.5z" fill="#1b0900" stroke-width="none" opacity="1" stroke="none"></path><path id="SvgjsPath6768" d="m90.4 83.7.8.5-.5 3.2-.3-3.7zm-6.2-2.8 1.5 3.1-2.1-3.2.6.1zm3.7 1.3.4.2c.2 1.6.5 4.3.5 4.3L87.3 82l.6.2zm-6.3-2.1.8 1.7-2.2-2.2 1.4.5zM69 82.2c.1 0 0 0 0 0zm-1.8 1c.8-.4 1.5-.8 1.8-.9-.3.2-1.6 1.3-2.9 2.2l1.1-1.3zm6.7-3.6 1.8 2-2.3-1.9.5-.1zm-4.7 1 1.7-.4 2.6.9c.1 0-2.4-.3-4.3-.5z" fill="#2a1104" stroke-width="none" opacity="1" stroke="none"></path></g></g></g><g id="svga-group-eyebrows-right-move" transform="matrix(1,0,0,1,-3,3)"><g id="svga-group-eyebrows-right-rotate" transform="matrix(0.982566472584334,0.1859116105927184,-0.1859116105927184,0.982566472584334,17.76902406411766,-20.989348375422296)"><g id="svga-group-eyebrows-right" transform="matrix(1.0500001,0,0,1.0500001,-6.040012232588211,-4.21250861573526)"><path id="SvgjsPath6769" d="m106 85.8.6 2.4 2.4 1.6 13.1-7.1 7.9-.2 5.6 4.1-4.8-6-8.5-1.9-10.2 3.5z" fill="#1b0900" stroke-width="none" opacity="1" stroke="none"></path><path id="SvgjsPath6770" d="m109.6 83.7-.8.5.5 3.2.3-3.7zm6.2-2.8-1.5 3.1 2.1-3.2-.6.1zm-3.7 1.3-.4.2c-.2 1.6-.5 4.3-.5 4.3l1.5-4.8-.6.3zm6.3-2.1-.8 1.7 2.2-2.2-1.4.5zm12.6 2.1c-.1 0 0 0 0 0zm1.8 1c-.8-.4-1.5-.8-1.8-.9.4.2 1.6 1.3 2.9 2.2l-1.1-1.3zm-6.7-3.6-1.8 2 2.3-1.9-.5-.1zm4.7 1-1.7-.4-2.6.9c-.1 0 2.3-.3 4.3-.5z" fill="#2a1104" stroke-width="none" opacity="1" stroke="none"></path></g></g></g><g id="svga-group-beardwrap"><g id="svga-group-beard-single-move" transform="matrix(1,0,0,1,0.5,0)"><g id="svga-group-beard-single" transform="matrix(0.8999995000000002,0,0,0.8999995000000002,10.005050330177284,13.335066522411324)"><path id="SvgjsPath8788" d="m139.1 103.7-5 2.3-1.6 6.3-.9 9.1-8 4.4-2.5-8.3-5.9-.9-8 .9-5.2 2.5h-3.9l-5.2-2.5-8-.9-5.9.9-2.5 8.3-8-4.4-.9-9.1L66 106l-5-2.3-4 19.1 1.6 9.2 28.2 31h26.5l28.2-30.9 1.6-9.2-.8-14.6-3.2-4.6zm-29.4 37.5-3.8 1.4-2.3-1v-2.9h-7.2v2.9l-2.3 1-3.8-1.4-7.4-12.6 1.1-3.5 5 1.9h7.9l2.5-.8h1.2l2.5.8h7.9l5-1.9 1.1 3.5-7.4 12.6z" fill="#2f2822" stroke-width="none" opacity="1" stroke="none"></path><path id="SvgjsPath8789" d="m105.9 142.6-2.3-.9.7 10.1 1.9-8.1 1.1 9.3.5-9.1 3.5-1.4.5 6.2.8-7.5.4 6.1 1.6-9.8 2.6-6-.1-2.7-7.4 12.6-3.8 1.2zm-9.5-.9-2.3 1-3.8-1.4-5.2-8.8c1.4 3.4 3.9 9.1 3.9 9.1l1.6 6.7 1.3-5.1 2 10.2 1.9-9.4.9 5.8.8-5.6.5-5.3h-1.7l.1 2.8zm-13.6-13.1 1.1-3.5 5 1.9h7.9l2.5-.8h1.2l2.5.8h7.9l5-1.9 1.1 3.5-.2-3.3 2.4-5.5-3.4 4.6-5.2 1.9-7.3-.1-3.6-2.4-3.8 2.4-7.8-.4-5.5-4.2.3 2.6-4.1-6.6 4 11zm-10 5.8c-.1-.7-.7-7.4-1-11.2l-1.3-.7c.8 4.3 2.4 12.6 2.3 11.9zm3.6-8.6L75 125l.8 4 .6-3.2zm-2.3 4.1c0-.4.1-3.1.2-5.3l-1.9-1c.7 2.8 1.7 6.8 1.7 6.3zm-4.8-1.8c0-.4.3-3.7.5-5.9l-1.4-.8s.9 7.4.9 6.7zm56.1-1.9c0 .5 1.5 12.2 1.5 12.2l.4-13.4 1.2 5 .9-6.4.9 2.4.5-3.2.9 1.2-.3-2.5-8 4.4.4 6.6c.1-.1 1.6-6.8 1.6-6.3zM57 122.8l1.6 12.2L74 152l12.7 11h26.5l13-11.1 15.2-16.8 1.6-12.2s-2 7.5-2.2 8c-.3.5-2.3 2.7-2.3 2.7v-4.2s-.9 4.6-.9 5c0 .4-11.6 11.8-11.6 11.8s-.4-3.6-.4-4c0-.4-.9 5.4-.9 5.4l-.5-7.4-1.2 9.3-8.5 7.5-.4-2.7-1.1 3.7-13.3-1.9-12.1 1.5-8.3-7.4-1.5-5.2s-.7 2.8-.7 3.2c0 .4-2.6-7.8-2.6-7.8l.4 5.2-3.2-3.5-2.6-9.4v6.9l-6.9-7.7-2.5-9 1.1-19.2-3 5-.8 14.1z" fill="#201914" stroke-width="none" opacity="1" stroke="none"></path></g></g></g><g id="svga-group-mustache-single-move" transform="matrix(1,0,0,1,0,0)"><g id="svga-group-mustache-single"></g></g><g id="svga-group-nose-single-move" transform="matrix(1,0,0,1,0,0)"><g id="svga-group-nose-single"><path id="SvgjsPath4648" d="m104.02 101.62 6.37 11.09-2.65 3.58-2.86-2.01-1.86 3.72h-6.3l-1.79-3.72-2.93 1.86-2.58-3.65 6.73-11.37 3.86-1.65z" fill="#f0c7b1" stroke-width="none" opacity="1" transform="translate(0 1)" stroke="none"></path><path id="SvgjsPath4649" d="m104.31 101.38-1.02-.41 6.61 11.51-2.05 2.93-1.77-1.21.28-1.31-1.4.6-2.05 4.04-2.7.1-3.2-.1-2.05-4.04-1.4-.6.28 1.31-1.77 1.21-2.04-2.93 6.61-11.51.42-13.8-1.45 14.21-6.7 11.3 3.26 4.24 2.79-2.01 1.58 3.53h6.84l1.58-3.53 2.8 2.01 3.26-4.24z" fill="#d19271" stroke-width="none" opacity="1" transform="translate(0 1)" stroke="none"></path><path id="SvgjsPath4650" d="m96.51 113.01 1.67.79 3.93.1 1.96-.89-.74-3.01-1.27-3.98-2.6 5.23z" fill="#f8d5c3" stroke-width="none" opacity="1" transform="translate(0 1)" stroke="none"></path></g></g><g id="svga-group-hair-front"><path id="SvgjsPath8400" d="m99.5 63.6-9.3-2.3-5-1.4-5.1-1.7-7.3-1.8-6.5 8.8-3 18.8-3 9.3-4.2-5.7-.4-10.7 1.2-15.1 7.3-12.1-1.1-6.2 3.9-9.7.4-6.5 3 7.7-1.2-7.3 3.6-7.2v4.6l1.8 3.6-.4-4 4.5 5.3 6.8 2-5.8-3.9-1.6-4.4 4.6 3 4 .4-2.8-3.6 5.9 3 21.1 2.6 4.9 3.5 10.3 4.8 1.8 3.2 4.6 4.3.8 4.2 8.5 6.8 2.4 19.2-.2 13.7-5.2 6.3-2.3-9.1-2-23.6L125 55l-14.8 6.1z" fill="#2a232b" stroke-width="none" opacity="1" stroke="none"></path><path id="SvgjsPath8401" d="m99.5 63.6-18.2-9L70.4 35l-1.2-7.3 3.6-7.3V25l1.8 3.6 10.5 9.5 11.4 7.7 1 14.1 2 3.7zm-26.7-7.2-8.6-6.7-1.1-6.2 3.9-9.7 5.3 15.7 14.5 10.7-14-3.8zm5.3-32.7 1.6 4.4 5.8 3.8 20.4 5.9 4.9 10.9-4.2 11.9-7.2 2.8 10.7-2.5s9.7-17.1 9.7-17.9-6.7-10-6.7-10l-28.2-4.2-4.9-2-1.9-3.1zm55.2 25.4L125 55l-10.1 4 10.5-9.2 2.4-9.2 4.6 4.2.9 4.3zm1.2 13.3 3.4-2.2 3.9-4.3-3.9 12.8-2.6 4.4-.8-10.7zm-68.2 2.8-3 18.8-6.5-22.2 6-9.7 3.5 13.1z" fill="#221b23" stroke-width="none" opacity="1" stroke="none"></path><path id="SvgjsPath8402" d="m79.3 31 25.5 7.1 6.1 10.8-4.3 11.9-6.7-17.1-15.1-7.5-5.5-5.2zm35.2 26.2 11-7.3 2.4-9.2-1.8-3.2-10.3-4.8 7.2 8.7-.6 5.2-7.9 10.6z" fill="#322c33" stroke-width="none" opacity="1" stroke="none"></path></g><g id="svga-group-glasses-single-move" transform="matrix(1,0,0,1,0,2)"><g id="svga-group-glasses-single" transform="matrix(0.8499995000000001,0,0,0.8499995000000001,15.000048283380494,14.42254773167609)"><path id="SvgjsPath9091" d="M85 80.3H74.7l-8.4 6.1-3.2 9.8 3.2 9.8 8.4 6.1H85l8.4-6.1 3.2-9.8-3.2-9.8z" fill="url(#SvgjsLinearGradient9092)" opacity="1"></path><path id="SvgjsPath9099" d="M115 80.3h10.3l8.4 6.1 3.2 9.8-3.2 9.8-8.4 6.1H115l-8.4-6.1-3.2-9.8 3.2-9.8z" fill="url(#SvgjsLinearGradient9100)" opacity="1"></path><path id="SvgjsPath9107" d="m138 92.2-1.9-1.8-1.5-4.6-8.9-6.5h-11l-8.9 6.5-1.8 5.5-1.5-.4-1.8-.9h-1.4l-1.8.9-1.5.4-1.8-5.5-8.9-6.5h-11l-8.9 6.5-1.4 4.6-2 1.8-2.3.2v4.8l2.6 1.2.7.8 2.4 7.3 8.9 6.5h11l8.9-6.5 3.4-10.4 1.7-2.6h1.4l1.7 2.6 3.4 10.4 8.9 6.5h11l8.9-6.5 2.4-7.3.7-.8 2.6-1.2v-4.8l-2.3-.2zm-45.5 13.2-7.8 5.7H75l-7.8-5.7-3-9.2 3-9.2 7.8-5.7h9.7l7.8 5.7 3 9.2-3 9.2zm40.3 0-7.8 5.7h-9.7l-7.8-5.7-3-9.2 3-9.2 7.8-5.7h9.7l7.8 5.7 3 9.2-3 9.2z" fill="#26120b" stroke-width="none" opacity="1"></path></g></g></g></g></g><rect id="svga-credit-rect" width="200" height="15" x="0" y="185" fill="#ecf0f1" opacity="0.5" style="display: none;"></rect><text id="svga-credit-text" font-family="Avenir Next, Roboto, Helvetica, Arial, sans-serif" font-size="10px" text-anchor="start" font-weight="400" size="10px" anchor="start" weight="400" fill="#333333" x="33.40447998046875" y="182.60824704170227" style="display: none;"><tspan id="SvgjsTspan3640" dy="13" x="33.40447998046875">Created on AvatarMaker.com</tspan></text></g><defs id="SvgjsDefs3587"><linearGradient id="SvgjsLinearGradient7803" x1="80.146" y1="82.3035" x2="80.146" y2="112.0705" gradientUnits="userSpaceOnUse" class="svga-on-canvas-glasses-gradient-single-0-null"><stop id="SvgjsStop7804" stop-opacity="1" stop-color="#211810" offset="0" ></stop><stop id="SvgjsStop7805" stop-opacity="0.5916" stop-color="#231910" offset="0.4084" ></stop><stop id="SvgjsStop7806" stop-opacity="0.4056" stop-color="#2a1d12" offset="0.5944" ></stop><stop id="SvgjsStop7807" stop-opacity="0.2646" stop-color="#372415" offset="0.7354" ></stop><stop id="SvgjsStop7808" stop-opacity="0.1464" stop-color="#492e19" offset="0.8536" ></stop><stop id="SvgjsStop7809" stop-opacity="4.349256e-02" stop-color="#613b1e" offset="0.9565" ></stop><stop id="SvgjsStop7810" stop-opacity="0" stop-color="#6d4221" offset="1" ></stop></linearGradient><linearGradient id="SvgjsLinearGradient7812" x1="-19.1836" y1="82.3035" x2="-19.1836" y2="112.0705" gradientTransform="matrix(-1 0 0 1 100.6704 0)" gradientUnits="userSpaceOnUse" class="svga-on-canvas-glasses-gradient-single-1-null"><stop id="SvgjsStop7813" stop-opacity="1" stop-color="#211810" offset="0" ></stop><stop id="SvgjsStop7814" stop-opacity="0.5916" stop-color="#231910" offset="0.4084" ></stop><stop id="SvgjsStop7815" stop-opacity="0.4056" stop-color="#2a1d12" offset="0.5944" ></stop><stop id="SvgjsStop7816" stop-opacity="0.2646" stop-color="#372415" offset="0.7354" ></stop><stop id="SvgjsStop7817" stop-opacity="0.1464" stop-color="#492e19" offset="0.8536" ></stop><stop id="SvgjsStop7818" stop-opacity="4.349256e-02" stop-color="#613b1e" offset="0.9565" ></stop><stop id="SvgjsStop7819" stop-opacity="0" stop-color="#6d4221" offset="1" ></stop></linearGradient><linearGradient id="SvgjsLinearGradient9092" x1="79.8605" y1="80.2962" x2="79.8605" y2="112.0897" gradientUnits="userSpaceOnUse" class="svga-on-canvas-glasses-gradient-single-0-null"><stop id="SvgjsStop9093" stop-opacity="1" stop-color="#b4c0cf" offset="0" ></stop><stop id="SvgjsStop9094" stop-opacity="0.9374" stop-color="#abbace" offset="0.06260771" ></stop><stop id="SvgjsStop9095" stop-opacity="0.679" stop-color="#8aa3ca" offset="0.321" ></stop><stop id="SvgjsStop9096" stop-opacity="0.4305" stop-color="#7393c6" offset="0.5695" ></stop><stop id="SvgjsStop9097" stop-opacity="0.1987" stop-color="#6589c5" offset="0.8013" ></stop><stop id="SvgjsStop9098" stop-opacity="0" stop-color="#6086c4" offset="1" ></stop></linearGradient><linearGradient id="SvgjsLinearGradient9100" x1="-20.1395" y1="80.2962" x2="-20.1395" y2="112.0897" gradientTransform="matrix(-1 0 0 1 100 0)" gradientUnits="userSpaceOnUse" class="svga-on-canvas-glasses-gradient-single-1-null"><stop id="SvgjsStop9101" stop-opacity="1" stop-color="#b4c0cf" offset="0" ></stop><stop id="SvgjsStop9102" stop-opacity="0.9374" stop-color="#abbace" offset="0.06260771" ></stop><stop id="SvgjsStop9103" stop-opacity="0.679" stop-color="#8aa3ca" offset="0.321" ></stop><stop id="SvgjsStop9104" stop-opacity="0.4305" stop-color="#7393c6" offset="0.5695" ></stop><stop id="SvgjsStop9105" stop-opacity="0.1987" stop-color="#6589c5" offset="0.8013" ></stop><stop id="SvgjsStop9106" stop-opacity="0" stop-color="#6086c4" offset="1" ></stop></linearGradient></defs></svg>